# This file uses centimeters as units for non-parametric coordinates.

mtllib armatura5.mtl
g default
v -0.181691 -0.117322 -0.274720
v 0.181691 -0.117322 -0.274720
v -0.181691 -0.149049 -0.274720
v 0.181691 -0.149049 -0.274720
v -0.298358 -0.212707 0.152249
v 0.298358 -0.212707 0.152249
v -0.213484 -0.126036 0.152249
v 0.213484 -0.126036 0.152249
v 0.447892 -0.062056 0.511527
v 0.447892 -0.062056 0.084558
v 0.447892 -0.097026 0.511527
v 0.447892 -0.097026 0.084558
v -0.447892 -0.062056 0.511527
v -0.447892 -0.062056 0.084558
v -0.447892 -0.097026 0.084558
v -0.447892 -0.097026 0.511527
vt 0.230820 0.319991
vt 0.230820 0.195222
vt 0.315572 0.197070
vt 0.315572 0.318142
vt 0.436645 0.192068
vt 0.436644 0.323146
vt 0.535405 0.187065
vt 0.535405 0.328149
vt 0.106245 0.320738
vt 0.106245 0.194475
vt 0.127951 0.126258
vt 0.053472 0.020288
vt 0.081992 0.000000
vt 0.158159 0.107071
vt 0.053473 0.494926
vt 0.127951 0.388956
vt 0.158159 0.408142
vt 0.081993 0.515214
vt 0.000000 0.125156
vt 0.544473 0.109610
vt 0.582052 0.109611
vt 0.227916 0.031883
vt 0.304083 0.138954
vt 0.000000 0.390057
vt 0.304084 0.376258
vt 0.227918 0.483330
vt 0.582052 0.405604
vt 0.544472 0.405604
vn 0.000000 0.000000 -1.000000
vn 0.000000 0.000000 -1.000000
vn 0.000000 0.000000 -1.000000
vn 0.000000 0.000000 -1.000000
vn 0.000000 -0.989068 -0.147462
vn 0.000000 -0.989068 -0.147462
vn 0.000000 -0.989068 -0.147462
vn 0.000000 -0.989068 -0.147462
vn 0.000000 0.000000 1.000000
vn 0.000000 0.000000 1.000000
vn 0.000000 0.000000 1.000000
vn 0.000000 0.000000 1.000000
vn 0.000000 0.999792 0.020404
vn 0.000000 0.999792 0.020404
vn 0.000000 0.999792 0.020404
vn 0.000000 0.999792 0.020404
vn 1.000000 -0.000000 0.000000
vn 1.000000 -0.000000 0.000000
vn 1.000000 -0.000000 0.000000
vn 1.000000 -0.000000 0.000000
vn -1.000000 0.000000 0.000000
vn -1.000000 0.000000 0.000000
vn -1.000000 0.000000 0.000000
vn -1.000000 0.000000 0.000000
vn -0.258025 0.965942 0.019463
vn -0.258025 0.965942 0.019463
vn -0.258025 0.965942 0.019463
vn -0.258025 0.965942 0.019463
vn -0.709023 -0.494712 0.502541
vn -0.709022 -0.494712 0.502541
vn -0.709023 -0.494712 0.502541
vn -0.709023 -0.494712 0.502541
vn 0.566217 -0.812633 -0.137937
vn 0.566217 -0.812633 -0.137937
vn 0.566217 -0.812633 -0.137937
vn 0.566217 -0.812633 -0.137937
vn 0.803483 0.000000 -0.595328
vn 0.803483 0.000000 -0.595328
vn 0.803483 0.000000 -0.595328
vn 0.803483 0.000000 -0.595328
vn 0.258025 0.965942 0.019463
vn 0.258025 0.965942 0.019463
vn 0.258025 0.965942 0.019463
vn 0.258025 0.965942 0.019463
vn -0.803483 0.000000 -0.595328
vn -0.803483 0.000000 -0.595328
vn -0.803483 0.000000 -0.595328
vn -0.803483 0.000000 -0.595328
vn -0.566217 -0.812633 -0.137937
vn -0.566217 -0.812633 -0.137937
vn -0.566217 -0.812633 -0.137937
vn -0.566217 -0.812633 -0.137937
vn 0.709023 -0.494712 0.502541
vn 0.709023 -0.494712 0.502541
vn 0.709023 -0.494712 0.502541
vn 0.709023 -0.494712 0.502541
s off
g pezzo_2pCube4
usemtl initialShadingGroup
f 1/1/1 2/2/2 4/3/3 3/4/4
f 3/4/5 4/3/6 6/5/7 5/6/8
f 5/6/9 6/5/10 8/7/11 7/8/12
f 7/9/13 8/10/14 2/2/15 1/1/16
f 10/11/17 9/12/18 11/13/19 12/14/20
f 13/15/21 14/16/22 15/17/23 16/18/24
f 2/2/25 8/10/26 9/19/27 10/11/28
f 8/7/29 6/5/30 11/20/31 9/21/32
f 6/22/33 4/23/34 12/14/35 11/13/36
f 4/23/37 2/2/38 10/11/39 12/14/40
f 7/9/41 1/1/42 14/16/43 13/24/44
f 1/1/45 3/25/46 15/17/47 14/16/48
f 3/25/49 5/26/50 16/18/51 15/17/52
f 5/6/53 7/8/54 13/27/55 16/28/56
g default
v 0.400000 -0.107880 0.050000
v 0.300000 -0.107880 0.050000
v 0.400000 -0.057880 0.050000
v 0.300000 -0.057880 0.050000
v 0.400000 -0.057880 0.250000
v 0.300000 -0.057880 0.250000
v 0.400000 -0.107880 0.250000
v 0.300000 -0.107880 0.250000
v 0.386527 -0.057880 0.076946
v 0.313473 -0.057880 0.076946
v 0.313473 -0.057880 0.223054
v 0.386527 -0.057880 0.223054
v 0.386527 -0.076533 0.076946
v 0.313473 -0.076533 0.076946
v 0.313473 -0.076533 0.223054
v 0.386527 -0.076533 0.223054
v 0.400000 -0.057880 0.150000
v 0.386527 -0.057880 0.150000
v 0.386527 -0.076533 0.150000
v 0.313473 -0.076533 0.150000
v 0.313473 -0.057880 0.150000
v 0.300000 -0.057880 0.150000
v 0.300000 -0.107880 0.150000
v 0.400000 -0.107880 0.150000
v 0.350000 -0.107880 0.050000
v 0.350000 -0.107880 0.150000
v 0.350000 -0.107880 0.250000
v 0.350000 -0.057880 0.250000
v 0.350000 -0.057880 0.223054
v 0.350000 -0.076533 0.223054
v 0.350000 -0.076533 0.150000
v 0.350000 -0.076533 0.076946
v 0.350000 -0.057880 0.076946
v 0.350000 -0.057880 0.050000
vt 0.121197 0.697007
vt 0.000000 0.697007
vt 0.000000 0.636409
vt 0.121197 0.636409
vt 0.436654 0.089483
vt 0.392384 0.089483
vt 0.392384 0.045214
vt 0.436654 0.045214
vt 0.000001 0.939402
vt 0.121198 0.939401
vt 0.121198 1.000000
vt 0.000001 1.000000
vt 0.892780 0.060599
vt 0.832181 0.060599
vt 0.832181 0.000000
vt 0.892780 0.000000
vt 0.121197 0.575810
vt 0.000000 0.575810
vt 0.000000 0.515212
vt 0.121197 0.515212
vt 0.000001 0.878803
vt 0.000001 0.818205
vt 0.121198 0.818204
vt 0.121198 0.878803
vt 0.181796 0.773934
vt 0.181796 0.757605
vt 0.242395 0.757605
vt 0.226066 0.773934
vt 0.226066 0.818204
vt 0.242395 0.818204
vt 0.242395 0.878802
vt 0.226066 0.862474
vt 0.181796 0.878803
vt 0.181796 0.862474
vt 0.137526 0.818204
vt 0.137526 0.862474
vt 0.348115 0.089484
vt 0.302901 0.089484
vt 0.302901 0.045214
vt 0.348115 0.045214
vt 0.392384 0.000000
vt 0.436654 0.000000
vt 0.481868 0.045214
vt 0.481868 0.089484
vt 0.436654 0.178967
vt 0.392384 0.178967
vt 0.392384 0.133753
vt 0.436654 0.133753
vt 0.121197 0.757605
vt 0.137526 0.773934
vt 0.348115 0.178967
vt 0.348115 0.133753
vt 0.348115 0.000000
vt 0.953378 0.060599
vt 0.953378 0.000000
vt 0.000000 0.757606
vt 0.892780 0.121197
vt 0.953378 0.121197
vt 0.832181 0.121197
vt 0.481868 0.133753
vt 0.302901 0.133753
vn 0.000000 0.000000 -1.000000
vn 0.000000 0.000000 -1.000000
vn 0.000000 0.000000 -1.000000
vn 0.000000 0.000000 -1.000000
vn -0.000000 1.000000 -0.000000
vn -0.000000 1.000000 -0.000000
vn -0.000000 1.000000 -0.000000
vn -0.000000 1.000000 -0.000000
vn 0.000000 0.000000 1.000000
vn 0.000000 0.000000 1.000000
vn 0.000000 0.000000 1.000000
vn 0.000000 0.000000 1.000000
vn 0.000000 -1.000000 0.000000
vn 0.000000 -1.000000 0.000000
vn 0.000000 -1.000000 0.000000
vn 0.000000 -1.000000 0.000000
vn -1.000000 0.000000 0.000000
vn -1.000000 0.000000 0.000000
vn -1.000000 0.000000 0.000000
vn -1.000000 0.000000 0.000000
vn 1.000000 0.000000 0.000000
vn 1.000000 0.000000 0.000000
vn 1.000000 0.000000 0.000000
vn 1.000000 0.000000 0.000000
vn -0.000000 1.000000 -0.000000
vn -0.000000 1.000000 -0.000000
vn -0.000000 1.000000 -0.000000
vn -0.000000 1.000000 -0.000000
vn -0.000000 1.000000 -0.000000
vn -0.000000 1.000000 -0.000000
vn -0.000000 1.000000 -0.000000
vn -0.000000 1.000000 -0.000000
vn -0.000000 1.000000 -0.000000
vn -0.000000 1.000000 -0.000000
vn -0.000000 1.000000 -0.000000
vn -0.000000 1.000000 -0.000000
vn -0.000000 1.000000 -0.000000
vn -0.000000 1.000000 -0.000000
vn -0.000000 1.000000 -0.000000
vn -0.000000 1.000000 -0.000000
vn 0.000000 0.000000 1.000000
vn 0.000000 0.000000 1.000000
vn 0.000000 0.000000 1.000000
vn 0.000000 0.000000 1.000000
vn 1.000000 0.000000 0.000000
vn 1.000000 0.000000 0.000000
vn 1.000000 0.000000 0.000000
vn 1.000000 0.000000 0.000000
vn 0.000000 0.000000 -1.000000
vn 0.000000 0.000000 -1.000000
vn 0.000000 0.000000 -1.000000
vn 0.000000 0.000000 -1.000000
vn -1.000000 0.000000 0.000000
vn -1.000000 0.000000 0.000000
vn -1.000000 0.000000 0.000000
vn -1.000000 0.000000 0.000000
vn -0.000000 1.000000 -0.000000
vn -0.000000 1.000000 -0.000000
vn -0.000000 1.000000 -0.000000
vn -0.000000 1.000000 -0.000000
vn -1.000000 0.000000 0.000000
vn -1.000000 0.000000 0.000000
vn -1.000000 0.000000 0.000000
vn -1.000000 0.000000 0.000000
vn -0.000000 1.000000 -0.000000
vn -0.000000 1.000000 -0.000000
vn -0.000000 1.000000 -0.000000
vn -0.000000 1.000000 -0.000000
vn 1.000000 0.000000 0.000000
vn 1.000000 0.000000 0.000000
vn 1.000000 0.000000 0.000000
vn 1.000000 0.000000 0.000000
vn -0.000000 1.000000 -0.000000
vn -0.000000 1.000000 -0.000000
vn -0.000000 1.000000 -0.000000
vn -0.000000 1.000000 -0.000000
vn -1.000000 0.000000 0.000000
vn -1.000000 0.000000 0.000000
vn -1.000000 0.000000 0.000000
vn -1.000000 0.000000 0.000000
vn 0.000000 -1.000000 0.000000
vn 0.000000 -1.000000 0.000000
vn 0.000000 -1.000000 0.000000
vn 0.000000 -1.000000 0.000000
vn 1.000000 0.000000 0.000000
vn 1.000000 0.000000 0.000000
vn 1.000000 0.000000 0.000000
vn 1.000000 0.000000 0.000000
vn 0.000000 -1.000000 0.000000
vn 0.000000 -1.000000 0.000000
vn 0.000000 -1.000000 0.000000
vn 0.000000 -1.000000 0.000000
vn 0.000000 -1.000000 0.000000
vn 0.000000 -1.000000 0.000000
vn 0.000000 -1.000000 0.000000
vn 0.000000 -1.000000 0.000000
vn 0.000000 0.000000 1.000000
vn 0.000000 0.000000 1.000000
vn 0.000000 0.000000 1.000000
vn 0.000000 0.000000 1.000000
vn -0.000000 1.000000 -0.000000
vn -0.000000 1.000000 -0.000000
vn -0.000000 1.000000 -0.000000
vn -0.000000 1.000000 -0.000000
vn 0.000000 0.000000 -1.000000
vn 0.000000 0.000000 -1.000000
vn 0.000000 0.000000 -1.000000
vn 0.000000 0.000000 -1.000000
vn -0.000000 1.000000 -0.000000
vn -0.000000 1.000000 -0.000000
vn -0.000000 1.000000 -0.000000
vn -0.000000 1.000000 -0.000000
vn -0.000000 1.000000 -0.000000
vn -0.000000 1.000000 -0.000000
vn -0.000000 1.000000 -0.000000
vn -0.000000 1.000000 -0.000000
vn 0.000000 0.000000 1.000000
vn 0.000000 0.000000 1.000000
vn 0.000000 0.000000 1.000000
vn 0.000000 0.000000 1.000000
vn -0.000000 1.000000 -0.000000
vn -0.000000 1.000000 -0.000000
vn -0.000000 1.000000 -0.000000
vn -0.000000 1.000000 -0.000000
vn 0.000000 0.000000 -1.000000
vn 0.000000 0.000000 -1.000000
vn 0.000000 0.000000 -1.000000
vn 0.000000 0.000000 -1.000000
s off
g pezzo_2pCube27
usemtl initialShadingGroup
f 50/29/57 41/30/58 18/31/59 20/32/60
f 46/33/61 47/34/62 36/35/63 31/36/64
f 43/37/65 44/38/66 22/39/67 24/40/68
f 42/41/69 43/42/70 24/43/71 39/44/72
f 38/45/73 39/46/74 24/47/75 22/48/76
f 23/49/77 40/50/78 33/51/79 21/52/80
f 49/53/81 50/54/82 20/55/83 26/56/84
f 37/57/85 38/58/86 22/59/87 27/60/88
f 22/59/89 44/61/90 45/62/91 27/60/92
f 21/52/93 33/51/94 34/63/95 28/64/96
f 48/65/97 49/66/98 26/67/99 30/68/100
f 36/35/101 37/69/102 27/70/103 31/36/104
f 27/71/105 45/72/106 46/33/107 31/36/108
f 28/73/109 34/74/110 35/75/111 32/76/112
f 34/63/113 33/51/114 19/77/115 25/78/116
f 35/75/117 34/74/118 25/79/119 29/80/120
f 47/34/121 48/65/122 30/68/123 36/35/124
f 26/81/125 37/69/126 36/35/127 30/68/128
f 20/55/129 38/58/130 37/57/131 26/56/132
f 18/31/133 39/46/134 38/45/135 20/32/136
f 41/82/137 42/41/138 39/44/139 18/83/140
f 33/51/141 40/50/142 17/84/143 19/77/144
f 40/85/145 42/41/146 41/82/147 17/86/148
f 23/87/149 43/42/150 42/41/151 40/85/152
f 21/52/153 44/38/154 43/37/155 23/49/156
f 45/62/157 44/61/158 21/52/159 28/64/160
f 46/33/161 45/72/162 28/88/163 32/76/164
f 35/75/165 47/34/166 46/33/167 32/76/168
f 29/80/169 48/65/170 47/34/171 35/75/172
f 25/89/173 49/66/174 48/65/175 29/80/176
f 19/77/177 50/54/178 49/53/179 25/78/180
f 17/84/181 41/30/182 50/29/183 19/77/184
g default
v -0.300000 -0.107880 0.050000
v -0.400000 -0.107880 0.050000
v -0.300000 -0.057880 0.050000
v -0.400000 -0.057880 0.050000
v -0.300000 -0.057880 0.250000
v -0.400000 -0.057880 0.250000
v -0.300000 -0.107880 0.250000
v -0.400000 -0.107880 0.250000
v -0.313473 -0.057880 0.076946
v -0.386527 -0.057880 0.076946
v -0.386527 -0.057880 0.223054
v -0.313473 -0.057880 0.223054
v -0.313473 -0.076533 0.076946
v -0.386527 -0.076533 0.076946
v -0.386527 -0.076533 0.223054
v -0.313473 -0.076533 0.223054
v -0.300000 -0.057880 0.150000
v -0.313473 -0.057880 0.150000
v -0.313473 -0.076533 0.150000
v -0.386527 -0.076533 0.150000
v -0.386527 -0.057880 0.150000
v -0.400000 -0.057880 0.150000
v -0.400000 -0.107880 0.150000
v -0.300000 -0.107880 0.150000
v -0.350000 -0.107880 0.050000
v -0.350000 -0.107880 0.150000
v -0.350000 -0.107880 0.250000
v -0.350000 -0.057880 0.250000
v -0.350000 -0.057880 0.223054
v -0.350000 -0.076533 0.223054
v -0.350000 -0.076533 0.150000
v -0.350000 -0.076533 0.076946
v -0.350000 -0.057880 0.076946
v -0.350000 -0.057880 0.050000
vt 0.121197 0.697007
vt 0.000000 0.697007
vt 0.000000 0.636409
vt 0.121197 0.636409
vt 0.436654 0.089483
vt 0.392384 0.089483
vt 0.392384 0.045214
vt 0.436654 0.045214
vt 0.000001 0.939402
vt 0.121198 0.939401
vt 0.121198 1.000000
vt 0.000001 1.000000
vt 0.892780 0.060599
vt 0.832181 0.060599
vt 0.832181 0.000000
vt 0.892780 0.000000
vt 0.121197 0.575810
vt 0.000000 0.575810
vt 0.000000 0.515212
vt 0.121197 0.515212
vt 0.000001 0.878803
vt 0.000001 0.818205
vt 0.121198 0.818204
vt 0.121198 0.878803
vt 0.181796 0.773934
vt 0.181796 0.757605
vt 0.242395 0.757605
vt 0.226066 0.773934
vt 0.226066 0.818204
vt 0.242395 0.818204
vt 0.242395 0.878802
vt 0.226066 0.862474
vt 0.181796 0.878803
vt 0.181796 0.862474
vt 0.137526 0.818204
vt 0.137526 0.862474
vt 0.348115 0.089484
vt 0.302901 0.089484
vt 0.302901 0.045214
vt 0.348115 0.045214
vt 0.392384 0.000000
vt 0.436654 0.000000
vt 0.481868 0.045214
vt 0.481868 0.089484
vt 0.436654 0.178967
vt 0.392384 0.178967
vt 0.392384 0.133753
vt 0.436654 0.133753
vt 0.121197 0.757605
vt 0.137526 0.773934
vt 0.348115 0.178967
vt 0.348115 0.133753
vt 0.348115 0.000000
vt 0.953378 0.060599
vt 0.953378 0.000000
vt 0.000000 0.757606
vt 0.892780 0.121197
vt 0.953378 0.121197
vt 0.832181 0.121197
vt 0.481868 0.133753
vt 0.302901 0.133753
vn 0.000000 0.000000 -1.000000
vn 0.000000 0.000000 -1.000000
vn 0.000000 0.000000 -1.000000
vn 0.000000 0.000000 -1.000000
vn -0.000000 1.000000 -0.000000
vn -0.000000 1.000000 -0.000000
vn -0.000000 1.000000 -0.000000
vn -0.000000 1.000000 -0.000000
vn 0.000000 0.000000 1.000000
vn 0.000000 0.000000 1.000000
vn 0.000000 0.000000 1.000000
vn 0.000000 0.000000 1.000000
vn 0.000000 -1.000000 0.000000
vn 0.000000 -1.000000 0.000000
vn 0.000000 -1.000000 0.000000
vn 0.000000 -1.000000 0.000000
vn -1.000000 0.000000 0.000000
vn -1.000000 0.000000 0.000000
vn -1.000000 0.000000 0.000000
vn -1.000000 0.000000 0.000000
vn 1.000000 0.000000 0.000000
vn 1.000000 0.000000 0.000000
vn 1.000000 0.000000 0.000000
vn 1.000000 0.000000 0.000000
vn -0.000000 1.000000 -0.000000
vn -0.000000 1.000000 -0.000000
vn -0.000000 1.000000 -0.000000
vn -0.000000 1.000000 -0.000000
vn -0.000000 1.000000 -0.000000
vn -0.000000 1.000000 -0.000000
vn -0.000000 1.000000 -0.000000
vn -0.000000 1.000000 -0.000000
vn -0.000000 1.000000 -0.000000
vn -0.000000 1.000000 -0.000000
vn -0.000000 1.000000 -0.000000
vn -0.000000 1.000000 -0.000000
vn -0.000000 1.000000 -0.000000
vn -0.000000 1.000000 -0.000000
vn -0.000000 1.000000 -0.000000
vn -0.000000 1.000000 -0.000000
vn 0.000000 0.000000 1.000000
vn 0.000000 0.000000 1.000000
vn 0.000000 0.000000 1.000000
vn 0.000000 0.000000 1.000000
vn 1.000000 0.000000 0.000000
vn 1.000000 0.000000 0.000000
vn 1.000000 0.000000 0.000000
vn 1.000000 0.000000 0.000000
vn 0.000000 0.000000 -1.000000
vn 0.000000 0.000000 -1.000000
vn 0.000000 0.000000 -1.000000
vn 0.000000 0.000000 -1.000000
vn -1.000000 0.000000 0.000000
vn -1.000000 0.000000 0.000000
vn -1.000000 0.000000 0.000000
vn -1.000000 0.000000 0.000000
vn -0.000000 1.000000 -0.000000
vn -0.000000 1.000000 -0.000000
vn -0.000000 1.000000 -0.000000
vn -0.000000 1.000000 -0.000000
vn -1.000000 0.000000 0.000000
vn -1.000000 0.000000 0.000000
vn -1.000000 0.000000 0.000000
vn -1.000000 0.000000 0.000000
vn -0.000000 1.000000 -0.000000
vn -0.000000 1.000000 -0.000000
vn -0.000000 1.000000 -0.000000
vn -0.000000 1.000000 -0.000000
vn 1.000000 0.000000 0.000000
vn 1.000000 0.000000 0.000000
vn 1.000000 0.000000 0.000000
vn 1.000000 0.000000 0.000000
vn -0.000000 1.000000 -0.000000
vn -0.000000 1.000000 -0.000000
vn -0.000000 1.000000 -0.000000
vn -0.000000 1.000000 -0.000000
vn -1.000000 0.000000 0.000000
vn -1.000000 0.000000 0.000000
vn -1.000000 0.000000 0.000000
vn -1.000000 0.000000 0.000000
vn 0.000000 -1.000000 0.000000
vn 0.000000 -1.000000 0.000000
vn 0.000000 -1.000000 0.000000
vn 0.000000 -1.000000 0.000000
vn 1.000000 0.000000 0.000000
vn 1.000000 0.000000 0.000000
vn 1.000000 0.000000 0.000000
vn 1.000000 0.000000 0.000000
vn 0.000000 -1.000000 0.000000
vn 0.000000 -1.000000 0.000000
vn 0.000000 -1.000000 0.000000
vn 0.000000 -1.000000 0.000000
vn 0.000000 -1.000000 0.000000
vn 0.000000 -1.000000 0.000000
vn 0.000000 -1.000000 0.000000
vn 0.000000 -1.000000 0.000000
vn 0.000000 0.000000 1.000000
vn 0.000000 0.000000 1.000000
vn 0.000000 0.000000 1.000000
vn 0.000000 0.000000 1.000000
vn -0.000000 1.000000 -0.000000
vn -0.000000 1.000000 -0.000000
vn -0.000000 1.000000 -0.000000
vn -0.000000 1.000000 -0.000000
vn 0.000000 0.000000 -1.000000
vn 0.000000 0.000000 -1.000000
vn 0.000000 0.000000 -1.000000
vn 0.000000 0.000000 -1.000000
vn -0.000000 1.000000 -0.000000
vn -0.000000 1.000000 -0.000000
vn -0.000000 1.000000 -0.000000
vn -0.000000 1.000000 -0.000000
vn -0.000000 1.000000 -0.000000
vn -0.000000 1.000000 -0.000000
vn -0.000000 1.000000 -0.000000
vn -0.000000 1.000000 -0.000000
vn 0.000000 0.000000 1.000000
vn 0.000000 0.000000 1.000000
vn 0.000000 0.000000 1.000000
vn 0.000000 0.000000 1.000000
vn -0.000000 1.000000 -0.000000
vn -0.000000 1.000000 -0.000000
vn -0.000000 1.000000 -0.000000
vn -0.000000 1.000000 -0.000000
vn 0.000000 0.000000 -1.000000
vn 0.000000 0.000000 -1.000000
vn 0.000000 0.000000 -1.000000
vn 0.000000 0.000000 -1.000000
s off
g pCube7pezzo_3
usemtl initialShadingGroup
f 84/90/185 75/91/186 52/92/187 54/93/188
f 80/94/189 81/95/190 70/96/191 65/97/192
f 77/98/193 78/99/194 56/100/195 58/101/196
f 76/102/197 77/103/198 58/104/199 73/105/200
f 72/106/201 73/107/202 58/108/203 56/109/204
f 57/110/205 74/111/206 67/112/207 55/113/208
f 83/114/209 84/115/210 54/116/211 60/117/212
f 71/118/213 72/119/214 56/120/215 61/121/216
f 56/120/217 78/122/218 79/123/219 61/121/220
f 55/113/221 67/112/222 68/124/223 62/125/224
f 82/126/225 83/127/226 60/128/227 64/129/228
f 70/96/229 71/130/230 61/131/231 65/97/232
f 61/132/233 79/133/234 80/94/235 65/97/236
f 62/134/237 68/135/238 69/136/239 66/137/240
f 68/124/241 67/112/242 53/138/243 59/139/244
f 69/136/245 68/135/246 59/140/247 63/141/248
f 81/95/249 82/126/250 64/129/251 70/96/252
f 60/142/253 71/130/254 70/96/255 64/129/256
f 54/116/257 72/119/258 71/118/259 60/117/260
f 52/92/261 73/107/262 72/106/263 54/93/264
f 75/143/265 76/102/266 73/105/267 52/144/268
f 67/112/269 74/111/270 51/145/271 53/138/272
f 74/146/273 76/102/274 75/143/275 51/147/276
f 57/148/277 77/103/278 76/102/279 74/146/280
f 55/113/281 78/99/282 77/98/283 57/110/284
f 79/123/285 78/122/286 55/113/287 62/125/288
f 80/94/289 79/133/290 62/149/291 66/137/292
f 69/136/293 81/95/294 80/94/295 66/137/296
f 63/141/297 82/126/298 81/95/299 69/136/300
f 59/150/301 83/127/302 82/126/303 63/141/304
f 53/138/305 84/115/306 83/114/307 59/139/308
f 51/145/309 75/91/310 84/90/311 53/138/312
