# This file uses centimeters as units for non-parametric coordinates.

mtllib scafo 1.mtl
g default
v -0.500000 -1.228848 3.359354
v 0.000000 -1.228848 3.359354
v 0.500000 -1.228848 3.359354
v -0.500000 -0.728848 3.359354
v 0.000000 -0.728848 3.359354
v 0.500000 -0.728848 3.359354
v -0.500000 -0.228848 3.359354
v 0.000000 -0.228848 3.359354
v 0.500000 -0.228848 3.359354
v -0.500000 -0.228848 2.859354
v 0.000000 -0.228848 2.859354
v 0.500000 -0.228848 2.859354
v -0.500000 -0.228848 2.359354
v 0.000000 -0.228848 2.359354
v 0.500000 -0.228848 2.359354
v -0.500000 -0.728848 2.359354
v 0.000000 -0.728848 2.359354
v 0.500000 -0.728848 2.359354
v -0.500000 -1.228848 2.359354
v 0.000000 -1.228848 2.359354
v 0.500000 -1.228848 2.359354
v -0.500000 -1.228848 2.859354
v 0.000000 -1.228848 2.859354
v 0.500000 -1.228848 2.859354
v 0.500000 -0.728848 2.859354
v -0.500000 -0.728848 2.859354
vt 0.427323 0.504685
vt 0.427323 0.565283
vt 0.366725 0.565283
vt 0.366725 0.504685
vt 0.306126 0.565283
vt 0.306126 0.504685
vt 0.427323 0.444086
vt 0.366725 0.444086
vt 0.306126 0.444086
vt 0.427323 0.686480
vt 0.427323 0.747079
vt 0.366725 0.747079
vt 0.366725 0.686480
vt 0.427323 0.807677
vt 0.366725 0.807677
vt 0.306126 0.747079
vt 0.306126 0.686480
vt 0.306125 0.322890
vt 0.184930 0.686481
vt 0.184929 0.625882
vt 0.245528 0.625882
vt 0.245528 0.686480
vt 0.184929 0.565284
vt 0.245528 0.565283
vt 0.306126 0.625882
vt 0.427323 0.625882
vt 0.487922 0.625882
vt 0.487922 0.686480
vt 0.487922 0.565283
vt 0.548520 0.625882
vt 0.548520 0.686480
vt 0.548520 0.565283
vt 0.427323 0.383487
vt 0.366724 0.383488
vt 0.306126 0.383488
vt 0.366725 0.625882
vt 0.366724 0.322889
vt 0.306126 0.807678
vt 0.427322 0.322889
vn 0.000000 0.000000 1.000000
vn 0.000000 0.000000 1.000000
vn 0.000000 0.000000 1.000000
vn 0.000000 0.000000 1.000000
vn 0.000000 0.000000 1.000000
vn 0.000000 0.000000 1.000000
vn 0.000000 0.000000 1.000000
vn 0.000000 0.000000 1.000000
vn 0.000000 0.000000 1.000000
vn 0.000000 1.000000 0.000000
vn 0.000000 1.000000 0.000000
vn 0.000000 1.000000 0.000000
vn 0.000000 1.000000 0.000000
vn 0.000000 1.000000 0.000000
vn 0.000000 1.000000 0.000000
vn 0.000000 1.000000 0.000000
vn 0.000000 1.000000 0.000000
vn 0.000000 1.000000 0.000000
vn 0.000000 0.000000 -1.000000
vn 0.000000 0.000000 -1.000000
vn 0.000000 0.000000 -1.000000
vn 0.000000 0.000000 -1.000000
vn 0.000000 0.000000 -1.000000
vn 0.000000 0.000000 -1.000000
vn 0.000000 0.000000 -1.000000
vn 0.000000 0.000000 -1.000000
vn 0.000000 0.000000 -1.000000
vn 0.000000 -1.000000 0.000000
vn 0.000000 -1.000000 0.000000
vn 0.000000 -1.000000 0.000000
vn 0.000000 -1.000000 0.000000
vn 0.000000 -1.000000 0.000000
vn 0.000000 -1.000000 0.000000
vn 0.000000 -1.000000 0.000000
vn 0.000000 -1.000000 0.000000
vn 0.000000 -1.000000 0.000000
vn 1.000000 0.000000 0.000000
vn 1.000000 0.000000 0.000000
vn 1.000000 0.000000 0.000000
vn 1.000000 0.000000 0.000000
vn 1.000000 0.000000 0.000000
vn 1.000000 0.000000 0.000000
vn 1.000000 0.000000 0.000000
vn 1.000000 0.000000 0.000000
vn 1.000000 0.000000 0.000000
vn -1.000000 0.000000 0.000000
vn -1.000000 0.000000 0.000000
vn -1.000000 0.000000 0.000000
vn -1.000000 0.000000 0.000000
vn -1.000000 0.000000 0.000000
vn -1.000000 0.000000 0.000000
vn -1.000000 0.000000 0.000000
vn -1.000000 0.000000 0.000000
vn -1.000000 0.000000 0.000000
s 1
g pCube20 pezzo_1
usemtl initialShadingGroup
f 1/39/1 2/33/2 5/34/3 4/37/4
f 2/33/2 3/7/5 6/8/6 5/34/3
f 4/37/4 5/34/3 8/35/7 7/18/8
f 5/34/3 6/8/6 9/9/9 8/35/7
s 2
f 7/19/10 8/20/11 11/21/12 10/22/13
f 8/20/11 9/23/14 12/24/15 11/21/12
f 10/22/13 11/21/12 14/25/16 13/17/17
f 11/21/12 12/24/15 15/5/18 14/25/16
s 3
f 13/17/19 14/25/20 17/36/21 16/13/22
f 14/25/20 15/5/23 18/3/24 17/36/21
f 16/13/22 17/36/21 20/26/25 19/10/26
f 17/36/21 18/3/24 21/2/27 20/26/25
s 4
f 19/10/28 20/26/29 23/27/30 22/28/31
f 20/26/29 21/2/32 24/29/33 23/27/30
f 22/28/31 23/27/30 2/30/34 1/31/35
f 23/27/30 24/29/33 3/32/36 2/30/34
s 5
f 24/1/37 21/2/38 18/3/39 25/4/40
f 3/7/41 24/1/37 25/4/40 6/8/42
f 25/4/40 18/3/39 15/5/43 12/6/44
f 6/8/42 25/4/40 12/6/44 9/9/45
s 6
f 19/10/46 22/11/47 26/12/48 16/13/49
f 22/11/47 1/14/50 4/15/51 26/12/48
f 16/13/49 26/12/48 10/16/52 13/17/53
f 26/12/48 4/15/51 7/38/54 10/16/52
g default
v -0.500000 -1.228848 3.359354
v 0.000000 -1.228848 3.359354
v 0.500000 -1.228848 3.359354
v -0.500000 -0.728848 3.359354
v 0.000000 -0.728848 3.359354
v 0.500000 -0.728848 3.359354
v -0.500000 -0.228848 3.359354
v 0.000000 -0.228848 3.359354
v 0.500000 -0.228848 3.359354
v -0.500000 -0.228848 2.859354
v 0.000000 -0.228848 2.859354
v 0.500000 -0.228848 2.859354
v -0.500000 -0.228848 2.359354
v 0.000000 -0.228848 2.359354
v 0.500000 -0.228848 2.359354
v -0.500000 -0.728848 2.359354
v 0.000000 -0.728848 2.359354
v 0.500000 -0.728848 2.359354
v -0.500000 -1.228848 2.359354
v 0.000000 -1.228848 2.359354
v 0.500000 -1.228848 2.359354
v -0.500000 -1.228848 2.859354
v 0.000000 -1.228848 2.859354
v 0.500000 -1.228848 2.859354
v 0.500000 -0.728848 2.859354
v -0.500000 -0.728848 2.859354
vt 0.644118 0.405604
vt 0.583520 0.405604
vt 0.583520 0.345006
vt 0.644118 0.345006
vt 0.583520 0.284407
vt 0.644118 0.284407
vt 0.704717 0.405604
vt 0.704717 0.345006
vt 0.704717 0.284407
vt 0.583520 0.526802
vt 0.644118 0.526801
vt 0.644119 0.587400
vt 0.583520 0.587400
vt 0.704717 0.526801
vt 0.704717 0.587400
vt 0.644119 0.647998
vt 0.583520 0.647999
vt 0.704717 0.647998
vt 0.704717 0.163210
vt 0.704717 0.223809
vt 0.644118 0.223809
vt 0.644118 0.163210
vt 0.583520 0.223809
vt 0.583520 0.163210
vt 0.583520 0.466203
vt 0.644118 0.466203
vt 0.704717 0.466203
vt 0.765315 0.466203
vt 0.765315 0.526801
vt 0.765315 0.405604
vt 0.825914 0.466203
vt 0.825914 0.526801
vt 0.825914 0.405604
vt 0.462323 0.526802
vt 0.462323 0.466203
vt 0.522921 0.466203
vt 0.522921 0.526802
vt 0.462323 0.405604
vt 0.522921 0.405604
vn 0.000000 0.000000 1.000000
vn 0.000000 0.000000 1.000000
vn 0.000000 0.000000 1.000000
vn 0.000000 0.000000 1.000000
vn 0.000000 0.000000 1.000000
vn 0.000000 0.000000 1.000000
vn 0.000000 0.000000 1.000000
vn 0.000000 0.000000 1.000000
vn 0.000000 0.000000 1.000000
vn 0.000000 1.000000 0.000000
vn 0.000000 1.000000 0.000000
vn 0.000000 1.000000 0.000000
vn 0.000000 1.000000 0.000000
vn 0.000000 1.000000 0.000000
vn 0.000000 1.000000 0.000000
vn 0.000000 1.000000 0.000000
vn 0.000000 1.000000 0.000000
vn 0.000000 1.000000 0.000000
vn 0.000000 0.000000 -1.000000
vn 0.000000 0.000000 -1.000000
vn 0.000000 0.000000 -1.000000
vn 0.000000 0.000000 -1.000000
vn 0.000000 0.000000 -1.000000
vn 0.000000 0.000000 -1.000000
vn 0.000000 0.000000 -1.000000
vn 0.000000 0.000000 -1.000000
vn 0.000000 0.000000 -1.000000
vn 0.000000 -1.000000 0.000000
vn 0.000000 -1.000000 0.000000
vn 0.000000 -1.000000 0.000000
vn 0.000000 -1.000000 0.000000
vn 0.000000 -1.000000 0.000000
vn 0.000000 -1.000000 0.000000
vn 0.000000 -1.000000 0.000000
vn 0.000000 -1.000000 0.000000
vn 0.000000 -1.000000 0.000000
vn 1.000000 0.000000 0.000000
vn 1.000000 0.000000 0.000000
vn 1.000000 0.000000 0.000000
vn 1.000000 0.000000 0.000000
vn 1.000000 0.000000 0.000000
vn 1.000000 0.000000 0.000000
vn 1.000000 0.000000 0.000000
vn 1.000000 0.000000 0.000000
vn 1.000000 0.000000 0.000000
vn -1.000000 0.000000 0.000000
vn -1.000000 0.000000 0.000000
vn -1.000000 0.000000 0.000000
vn -1.000000 0.000000 0.000000
vn -1.000000 0.000000 0.000000
vn -1.000000 0.000000 0.000000
vn -1.000000 0.000000 0.000000
vn -1.000000 0.000000 0.000000
vn -1.000000 0.000000 0.000000
s 1
g pezzo_1 pCube5
usemtl initialShadingGroup
f 27/53/55 28/66/56 31/67/57 30/68/58
f 28/66/56 29/46/59 32/69/60 31/67/57
f 30/68/58 31/67/57 34/70/61 33/71/62
f 31/67/57 32/69/60 35/72/63 34/70/61
s 2
f 33/58/64 34/59/65 37/60/66 36/61/67
f 34/59/65 35/48/68 38/45/69 37/60/66
f 36/61/67 37/60/66 40/62/70 39/63/71
f 37/60/66 38/45/69 41/44/72 40/62/70
s 3
f 39/73/73 40/74/74 43/75/75 42/76/76
f 40/74/74 41/77/77 44/78/78 43/75/75
f 42/76/76 43/75/75 46/64/79 45/49/80
f 43/75/75 44/78/78 47/41/81 46/64/79
s 4
f 45/49/82 46/64/83 49/65/84 48/50/85
f 46/64/83 47/41/86 50/40/87 49/65/84
f 48/50/85 49/65/84 28/66/88 27/53/89
f 49/65/84 50/40/87 29/46/90 28/66/88
s 5
f 50/40/91 47/41/92 44/42/93 51/43/94
f 29/46/95 50/40/91 51/43/94 32/47/96
f 51/43/94 44/42/93 41/44/97 38/45/98
f 32/47/96 51/43/94 38/45/98 35/48/99
s 6
f 45/49/100 48/50/101 52/51/102 42/52/103
f 48/50/101 27/53/104 30/54/105 52/51/102
f 42/52/103 52/51/102 36/55/106 39/56/107
f 52/51/102 30/54/105 33/57/108 36/55/106
g default
v 4.000000 -1.250000 -0.500000
v 3.000000 -1.250000 -0.500000
v 4.000000 -1.750000 -0.500000
v 3.000000 -1.750000 -0.500000
v 4.000000 -1.750000 -2.500000
v 3.000000 -1.750000 -2.500000
v 4.000000 -1.250000 -2.500000
v 3.000000 -1.250000 -2.500000
v 3.865270 -1.750000 -0.769461
v 3.134730 -1.750000 -0.769461
v 3.134730 -1.750000 -2.230539
v 3.865270 -1.750000 -2.230539
v 3.865270 -1.563471 -0.769461
v 3.134730 -1.563471 -0.769461
v 3.134730 -1.563471 -2.230539
v 3.865270 -1.563471 -2.230539
vt 0.950227 0.121198
vt 0.950226 0.242395
vt 0.829029 0.242394
vt 0.829030 0.121197
vt 0.950190 0.542558
vt 0.950190 0.663756
vt 0.828993 0.663755
vt 0.828993 0.542558
vt 0.829568 0.242395
vt 0.918107 0.242394
vt 0.918108 0.287608
vt 0.829568 0.287608
vt 0.918108 0.421361
vt 0.829569 0.421361
vt 0.829568 0.376147
vt 0.918108 0.376147
vt 0.583483 0.121197
vt 0.583483 0.000000
vt 0.704680 0.000000
vt 0.704680 0.121197
vt 0.707833 0.121197
vt 0.812701 0.137526
vt 0.724161 0.137526
vt 0.812701 0.226065
vt 0.707833 0.242394
vt 0.724161 0.226065
vt 0.707832 0.000000
vt 0.829029 0.000000
vt 0.828993 0.421361
vt 0.950190 0.421361
vt 0.784355 0.376147
vt 0.784355 0.287608
vt 0.963321 0.287608
vt 0.963321 0.376147
vn 0.000000 0.000000 1.000000
vn 0.000000 0.000000 1.000000
vn 0.000000 0.000000 1.000000
vn 0.000000 0.000000 1.000000
vn -0.000000 -1.000000 0.000000
vn -0.000000 -1.000000 0.000000
vn -0.000000 -1.000000 0.000000
vn -0.000000 -1.000000 0.000000
vn -0.000000 0.000000 -1.000000
vn -0.000000 0.000000 -1.000000
vn -0.000000 0.000000 -1.000000
vn -0.000000 0.000000 -1.000000
vn 0.000000 1.000000 0.000000
vn 0.000000 1.000000 0.000000
vn 0.000000 1.000000 0.000000
vn 0.000000 1.000000 0.000000
vn -1.000000 0.000000 0.000000
vn -1.000000 0.000000 0.000000
vn -1.000000 0.000000 0.000000
vn -1.000000 0.000000 0.000000
vn 1.000000 -0.000000 0.000000
vn 1.000000 -0.000000 0.000000
vn 1.000000 -0.000000 0.000000
vn 1.000000 -0.000000 0.000000
vn -0.000000 -1.000000 0.000000
vn -0.000000 -1.000000 0.000000
vn -0.000000 -1.000000 0.000000
vn -0.000000 -1.000000 0.000000
vn -0.000000 -1.000000 0.000000
vn -0.000000 -1.000000 0.000000
vn -0.000000 -1.000000 0.000000
vn -0.000000 -1.000000 0.000000
vn -0.000000 -1.000000 0.000000
vn -0.000000 -1.000000 0.000000
vn -0.000000 -1.000000 0.000000
vn -0.000000 -1.000000 0.000000
vn -0.000000 -1.000000 0.000000
vn -0.000000 -1.000000 0.000000
vn -0.000000 -1.000000 0.000000
vn -0.000000 -1.000000 0.000000
vn -0.000000 0.000000 -1.000000
vn -0.000000 0.000000 -1.000000
vn -0.000000 0.000000 -1.000000
vn -0.000000 0.000000 -1.000000
vn 1.000000 -0.000000 0.000000
vn 1.000000 -0.000000 0.000000
vn 1.000000 -0.000000 0.000000
vn 1.000000 -0.000000 0.000000
vn 0.000000 0.000000 1.000000
vn 0.000000 0.000000 1.000000
vn 0.000000 0.000000 1.000000
vn 0.000000 0.000000 1.000000
vn -1.000000 0.000000 0.000000
vn -1.000000 0.000000 0.000000
vn -1.000000 0.000000 0.000000
vn -1.000000 0.000000 0.000000
s off
g pezzo_1 pCube8
usemtl initialShadingGroup
f 53/105/109 54/106/110 56/82/111 55/99/112
f 65/93/113 66/90/114 67/89/115 68/94/116
f 57/86/117 58/107/118 60/108/119 59/83/120
f 59/95/121 60/96/122 54/97/123 53/98/124
f 54/79/125 60/80/126 58/81/127 56/82/128
f 59/83/129 53/84/130 55/85/131 57/86/132
f 55/99/133 56/82/134 62/100/135 61/101/136
f 56/82/137 58/81/138 63/102/139 62/100/140
f 58/81/141 57/103/142 64/104/143 63/102/144
f 57/103/145 55/99/146 61/101/147 64/104/148
f 61/109/149 62/110/150 66/90/151 65/93/152
f 62/87/153 63/88/154 67/89/155 66/90/156
f 63/111/157 64/112/158 68/94/159 67/89/160
f 64/91/161 61/92/162 65/93/163 68/94/164
g default
v -2.134842 -1.174160 2.747197
v 2.134842 -1.174160 2.747197
v -2.134842 -0.255130 2.747197
v 2.134842 -0.255130 2.747197
v -2.134842 -0.255130 -1.522487
v 2.134842 -0.255130 -1.522487
v -2.134842 -1.174160 -1.522487
v 2.134842 -1.174160 -1.522487
v 4.478923 -1.608242 -5.115268
v 4.478923 -1.608242 -0.845584
v 4.478923 -1.258539 -5.115268
v 4.478923 -1.258539 -0.845584
v -4.478923 -1.608242 -5.115268
v -4.478923 -1.608242 -0.845584
v -4.478923 -1.258539 -0.845584
v -4.478923 -1.258539 -5.115268
vt 0.127951 0.126258
vt 0.053472 0.020288
vt 0.081992 0.000000
vt 0.158159 0.107071
vt 0.227916 0.031883
vt 0.304083 0.138954
vt 0.230820 0.195222
vt 0.053473 0.494926
vt 0.127951 0.388956
vt 0.158159 0.408142
vt 0.081993 0.515214
vt 0.230820 0.319991
vt 0.304084 0.376258
vt 0.227918 0.483330
vt 0.315572 0.318142
vt 0.315572 0.197070
vt 0.436645 0.192068
vt 0.436644 0.323146
vt 0.106245 0.320738
vt 0.106245 0.194475
vt 0.000000 0.125156
vt 0.000000 0.390057
vt 0.535405 0.187065
vt 0.535405 0.328149
vt 0.544473 0.109610
vt 0.582052 0.109611
vt 0.582052 0.405604
vt 0.544472 0.405604
vn 0.000000 0.000000 1.000000
vn 0.000000 0.000000 1.000000
vn 0.000000 0.000000 1.000000
vn 0.000000 0.000000 1.000000
vn -0.096801 0.995304 0.000000
vn 0.096801 0.995304 0.000000
vn 0.187397 0.982284 0.000000
vn -0.187397 0.982284 0.000000
vn 0.000000 0.000000 -1.000000
vn 0.000000 0.000000 -1.000000
vn 0.000000 0.000000 -1.000000
vn 0.000000 0.000000 -1.000000
vn 0.085863 -0.996307 0.000000
vn -0.085863 -0.996307 0.000000
vn -0.034300 -0.999412 0.000000
vn 0.034300 -0.999412 0.000000
vn 1.000000 0.000000 0.000000
vn 1.000000 0.000000 0.000000
vn 1.000000 0.000000 0.000000
vn 1.000000 0.000000 0.000000
vn -1.000000 0.000000 0.000000
vn -1.000000 0.000000 0.000000
vn -1.000000 0.000000 0.000000
vn -1.000000 0.000000 0.000000
vn -0.182086 -0.983283 0.000000
vn -0.182086 -0.983283 0.000000
vn -0.837508 0.000000 -0.546425
vn -0.837508 0.000000 -0.546425
vn -0.837508 0.000000 -0.546425
vn -0.837508 0.000000 -0.546425
vn 0.393523 0.919315 0.000000
vn 0.393523 0.919315 0.000000
vn 0.837508 0.000000 0.546425
vn 0.837508 0.000000 0.546425
vn 0.837508 0.000000 0.546425
vn 0.837508 0.000000 0.546425
vn 0.182086 -0.983283 0.000000
vn 0.182086 -0.983283 0.000000
vn -0.837508 0.000000 0.546425
vn -0.837508 0.000000 0.546425
vn -0.837508 0.000000 0.546425
vn -0.837508 0.000000 0.546425
vn -0.393523 0.919315 0.000000
vn -0.393523 0.919315 0.000000
vn 0.837508 0.000000 -0.546425
vn 0.837508 0.000000 -0.546425
vn 0.837508 0.000000 -0.546425
vn 0.837508 0.000000 -0.546425
s off
g pezzo_1 pCube4
usemtl initialShadingGroup
f 69/124/165 70/119/166 72/128/167 71/127/168
s 1
f 71/127/169 72/128/170 74/129/171 73/130/172
s off
f 73/130/173 74/129/174 76/135/175 75/136/176
s 2
f 75/131/177 76/132/178 70/119/179 69/124/180
s off
f 78/113/181 77/114/182 79/115/183 80/116/184
f 81/120/185 82/121/186 83/122/187 84/123/188
s 2
f 70/119/179 76/132/178 77/133/189 78/113/190
s off
f 76/135/191 74/129/192 79/137/193 77/138/194
s 1
f 74/117/171 72/118/170 80/116/195 79/115/196
s off
f 72/118/197 70/119/198 78/113/199 80/116/200
s 2
f 75/131/177 69/124/180 82/121/201 81/134/202
s off
f 69/124/203 71/125/204 83/122/205 82/121/206
s 1
f 71/125/169 73/126/172 84/123/207 83/122/208
s off
f 73/130/209 75/136/210 81/139/211 84/140/212
g default
v -3.000000 -1.250000 -0.500000
v -4.000000 -1.250000 -0.500000
v -3.000000 -1.750000 -0.500000
v -4.000000 -1.750000 -0.500000
v -3.000000 -1.750000 -2.500000
v -4.000000 -1.750000 -2.500000
v -3.000000 -1.250000 -2.500000
v -4.000000 -1.250000 -2.500000
v -3.134730 -1.750000 -0.769461
v -3.865270 -1.750000 -0.769461
v -3.865270 -1.750000 -2.230539
v -3.134730 -1.750000 -2.230539
v -3.134730 -1.563471 -0.769461
v -3.865270 -1.563471 -0.769461
v -3.865270 -1.563471 -2.230539
v -3.134730 -1.563471 -2.230539
vt 0.000000 0.636409
vt 0.000000 0.515212
vt 0.121197 0.515212
vt 0.121197 0.636409
vt 0.000001 0.878803
vt 0.000000 0.757606
vt 0.121197 0.757605
vt 0.121198 0.878803
vt 0.348115 0.000000
vt 0.436654 0.000000
vt 0.436654 0.045214
vt 0.348115 0.045214
vt 0.436654 0.178967
vt 0.348115 0.178967
vt 0.348115 0.133753
vt 0.436654 0.133753
vt 0.832181 0.121197
vt 0.832181 0.000000
vt 0.953378 0.000000
vt 0.953378 0.121197
vt 0.242395 0.757605
vt 0.226066 0.773934
vt 0.137526 0.773934
vt 0.242395 0.878802
vt 0.226066 0.862474
vt 0.137526 0.862474
vt 0.121198 1.000000
vt 0.000001 1.000000
vt 0.302901 0.133753
vt 0.302901 0.045214
vt 0.481868 0.045214
vt 0.481868 0.133753
vn 0.000000 0.000000 1.000000
vn 0.000000 0.000000 1.000000
vn 0.000000 0.000000 1.000000
vn 0.000000 0.000000 1.000000
vn -0.000000 -1.000000 0.000000
vn -0.000000 -1.000000 0.000000
vn -0.000000 -1.000000 0.000000
vn -0.000000 -1.000000 0.000000
vn -0.000000 0.000000 -1.000000
vn -0.000000 0.000000 -1.000000
vn -0.000000 0.000000 -1.000000
vn -0.000000 0.000000 -1.000000
vn 0.000000 1.000000 0.000000
vn 0.000000 1.000000 0.000000
vn 0.000000 1.000000 0.000000
vn 0.000000 1.000000 0.000000
vn -1.000000 0.000000 0.000000
vn -1.000000 0.000000 0.000000
vn -1.000000 0.000000 0.000000
vn -1.000000 0.000000 0.000000
vn 1.000000 -0.000000 0.000000
vn 1.000000 -0.000000 0.000000
vn 1.000000 -0.000000 0.000000
vn 1.000000 -0.000000 0.000000
vn -0.000000 -1.000000 0.000000
vn -0.000000 -1.000000 0.000000
vn -0.000000 -1.000000 0.000000
vn -0.000000 -1.000000 0.000000
vn -0.000000 -1.000000 0.000000
vn -0.000000 -1.000000 0.000000
vn -0.000000 -1.000000 0.000000
vn -0.000000 -1.000000 0.000000
vn -0.000000 -1.000000 0.000000
vn -0.000000 -1.000000 0.000000
vn -0.000000 -1.000000 0.000000
vn -0.000000 -1.000000 0.000000
vn -0.000000 -1.000000 0.000000
vn -0.000000 -1.000000 0.000000
vn -0.000000 -1.000000 0.000000
vn -0.000000 -1.000000 0.000000
vn -0.000000 0.000000 -1.000000
vn -0.000000 0.000000 -1.000000
vn -0.000000 0.000000 -1.000000
vn -0.000000 0.000000 -1.000000
vn 1.000000 -0.000000 0.000000
vn 1.000000 -0.000000 0.000000
vn 1.000000 -0.000000 0.000000
vn 1.000000 -0.000000 0.000000
vn 0.000000 0.000000 1.000000
vn 0.000000 0.000000 1.000000
vn 0.000000 0.000000 1.000000
vn 0.000000 0.000000 1.000000
vn -1.000000 0.000000 0.000000
vn -1.000000 0.000000 0.000000
vn -1.000000 0.000000 0.000000
vn -1.000000 0.000000 0.000000
s off
g pezzo_1 pCube7
usemtl initialShadingGroup
f 85/146/213 86/141/214 88/144/215 87/147/216
f 97/155/217 98/152/218 99/151/219 100/156/220
f 89/148/221 90/167/222 92/168/223 91/145/224
f 91/157/225 92/158/226 86/159/227 85/160/228
f 86/141/229 92/142/230 90/143/231 88/144/232
f 91/145/233 85/146/234 87/147/235 89/148/236
f 87/147/237 88/161/238 94/162/239 93/163/240
f 88/161/241 90/164/242 95/165/243 94/162/244
f 90/164/245 89/148/246 96/166/247 95/165/248
f 89/148/249 87/147/250 93/163/251 96/166/252
f 93/169/253 94/170/254 98/152/255 97/155/256
f 94/149/257 95/150/258 99/151/259 98/152/260
f 95/171/261 96/172/262 100/156/263 99/151/264
f 96/153/265 93/154/266 97/155/267 100/156/268
