# This file uses centimeters as units for non-parametric coordinates.

mtllib anello3.mtl
g default
v 26.173891 -3.820140 -8.594516
v 22.264843 -3.249606 -16.347740
v 16.176353 -2.360976 -22.500735
v 8.504411 -1.241239 -26.451197
v 0.000000 0.000000 -27.812434
v -8.504411 1.241239 -26.451196
v -16.176350 2.360976 -22.500730
v -22.264835 3.249604 -16.347735
v -26.173881 3.820139 -8.594512
v -27.520846 4.016732 0.000000
v -26.173881 3.820139 8.594512
v -22.264833 3.249604 16.347734
v -16.176347 2.360975 22.500725
v -8.504409 1.241238 26.451187
v -0.000001 0.000000 27.812424
v 8.504406 -1.241238 26.451186
v 16.176343 -2.360975 22.500724
v 22.264828 -3.249604 16.347732
v 26.173874 -3.820138 8.594511
v 27.520840 -4.016731 0.000000
v 26.456168 -3.736124 -8.681329
v 22.507634 -3.159826 -16.512869
v 16.357645 -2.262221 -22.728014
v 8.608209 -1.131173 -26.718381
v 0.017894 0.122604 -28.093367
v -8.572420 1.376380 -26.718380
v -16.321853 2.507428 -22.728009
v -22.471837 3.405032 -16.512864
v -26.420369 3.981330 -8.681326
v -27.780940 4.179908 0.000000
v -26.420369 3.981330 8.681326
v -22.471835 3.405032 16.512862
v -16.321850 2.507428 22.728004
v -8.572418 1.376380 26.718371
v 0.017893 0.122604 28.093357
v 8.608204 -1.131172 26.718370
v 16.357635 -2.262219 22.728003
v 22.507619 -3.159824 16.512861
v 26.456151 -3.736121 8.681324
v 27.816722 -3.934700 0.000000
v 26.702656 -3.897315 -8.768142
v 22.714636 -3.315254 -16.677998
v 16.503148 -2.408673 -22.955294
v 8.676218 -1.266314 -26.985565
v -0.000000 -0.000000 -28.374301
v -8.676218 1.266314 -26.985564
v -16.503145 2.408672 -22.955289
v -22.714627 3.315253 -16.677993
v -26.702647 3.897313 -8.768139
v -28.076822 4.097878 0.000000
v -26.702647 3.897313 8.768139
v -22.714626 3.315253 16.677991
v -16.503142 2.408672 22.955284
v -8.676215 1.266314 26.985555
v -0.000001 0.000000 28.374291
v 8.676213 -1.266313 26.985554
v 16.503138 -2.408671 22.955282
v 22.714621 -3.315252 16.677989
v 26.702640 -3.897313 8.768137
v 28.076816 -4.097877 0.000000
v 26.420379 -3.981331 -8.681329
v 22.471845 -3.405034 -16.512869
v 16.321856 -2.507429 -22.728014
v 8.572420 -1.376380 -26.718381
v -0.017894 -0.122604 -28.093367
v -8.608209 1.131173 -26.718380
v -16.357642 2.262220 -22.728009
v -22.507625 3.159825 -16.512864
v -26.456158 3.736122 -8.681326
v -27.816729 3.934701 0.000000
v -26.456158 3.736122 8.681326
v -22.507624 3.159825 16.512862
v -16.357638 2.262220 22.728004
v -8.608206 1.131172 26.718371
v -0.017895 -0.122604 28.093357
v 8.572415 -1.376380 26.718370
v 16.321846 -2.507427 22.728003
v 22.471830 -3.405031 16.512861
v 26.420363 -3.981329 8.681324
v 27.780933 -4.179908 0.000000
vt 0.000000 1.000000
vt 0.050000 1.000000
vt 0.100000 1.000000
vt 0.150000 1.000000
vt 0.200000 1.000000
vt 0.250000 1.000000
vt 0.300000 1.000000
vt 0.350000 1.000000
vt 0.400000 1.000000
vt 0.450000 1.000000
vt 0.500000 1.000000
vt 0.550000 1.000000
vt 0.600000 1.000000
vt 0.650000 1.000000
vt 0.700000 1.000000
vt 0.750000 1.000000
vt 0.800000 1.000000
vt 0.850000 1.000000
vt 0.900000 1.000000
vt 0.950000 1.000000
vt 1.000000 1.000000
vt 0.000000 0.750000
vt 0.050000 0.750000
vt 0.100000 0.750000
vt 0.150000 0.750000
vt 0.200000 0.750000
vt 0.250000 0.750000
vt 0.300000 0.750000
vt 0.350000 0.750000
vt 0.400000 0.750000
vt 0.450000 0.750000
vt 0.500000 0.750000
vt 0.550000 0.750000
vt 0.600000 0.750000
vt 0.650000 0.750000
vt 0.700000 0.750000
vt 0.750000 0.750000
vt 0.800000 0.750000
vt 0.850000 0.750000
vt 0.900000 0.750000
vt 0.950000 0.750000
vt 1.000000 0.750000
vt 0.000000 0.500000
vt 0.050000 0.500000
vt 0.100000 0.500000
vt 0.150000 0.500000
vt 0.200000 0.500000
vt 0.250000 0.500000
vt 0.300000 0.500000
vt 0.350000 0.500000
vt 0.400000 0.500000
vt 0.450000 0.500000
vt 0.500000 0.500000
vt 0.550000 0.500000
vt 0.600000 0.500000
vt 0.650000 0.500000
vt 0.700000 0.500000
vt 0.750000 0.500000
vt 0.800000 0.500000
vt 0.850000 0.500000
vt 0.900000 0.500000
vt 0.950000 0.500000
vt 1.000000 0.500000
vt 0.000000 0.250000
vt 0.050000 0.250000
vt 0.100000 0.250000
vt 0.150000 0.250000
vt 0.200000 0.250000
vt 0.250000 0.250000
vt 0.300000 0.250000
vt 0.350000 0.250000
vt 0.400000 0.250000
vt 0.450000 0.250000
vt 0.500000 0.250000
vt 0.550000 0.250000
vt 0.600000 0.250000
vt 0.650000 0.250000
vt 0.700000 0.250000
vt 0.750000 0.250000
vt 0.800000 0.250000
vt 0.850000 0.250000
vt 0.900000 0.250000
vt 0.950000 0.250000
vt 1.000000 0.250000
vt 0.000000 0.000000
vt 0.050000 0.000000
vt 0.100000 0.000000
vt 0.150000 0.000000
vt 0.200000 0.000000
vt 0.250000 0.000000
vt 0.300000 0.000000
vt 0.350000 0.000000
vt 0.400000 0.000000
vt 0.450000 0.000000
vt 0.500000 0.000000
vt 0.550000 0.000000
vt 0.600000 0.000000
vt 0.650000 0.000000
vt 0.700000 0.000000
vt 0.750000 0.000000
vt 0.800000 0.000000
vt 0.850000 0.000000
vt 0.900000 0.000000
vt 0.950000 0.000000
vt 1.000000 0.000000
vn -0.190904 0.952520 0.237193
vn -0.247621 0.960799 0.124699
vn -0.247621 0.960799 0.124699
vn -0.190904 0.952520 0.237193
vn -0.102564 0.939628 0.326467
vn -0.102564 0.939628 0.326467
vn 0.008749 0.923381 0.383785
vn 0.008749 0.923381 0.383785
vn 0.132141 0.905372 0.403535
vn 0.132141 0.905372 0.403535
vn 0.255533 0.887362 0.383784
vn 0.255533 0.887363 0.383785
vn 0.366847 0.871116 0.326467
vn 0.366847 0.871116 0.326467
vn 0.455187 0.858222 0.237193
vn 0.455186 0.858222 0.237193
vn 0.511904 0.849944 0.124700
vn 0.511904 0.849944 0.124700
vn 0.531447 0.847091 -0.000000
vn 0.531447 0.847091 -0.000000
vn 0.511904 0.849944 -0.124700
vn 0.511904 0.849944 -0.124700
vn 0.455186 0.858222 -0.237192
vn 0.455186 0.858222 -0.237193
vn 0.366847 0.871116 -0.326467
vn 0.366847 0.871116 -0.326467
vn 0.255533 0.887362 -0.383785
vn 0.255533 0.887362 -0.383785
vn 0.132141 0.905372 -0.403535
vn 0.132141 0.905372 -0.403535
vn 0.008749 0.923381 -0.383785
vn 0.008749 0.923381 -0.383785
vn -0.102565 0.939627 -0.326468
vn -0.102565 0.939627 -0.326468
vn -0.190904 0.952520 -0.237193
vn -0.190904 0.952520 -0.237193
vn -0.247622 0.960798 -0.124700
vn -0.247622 0.960798 -0.124700
vn -0.267164 0.963651 -0.000000
vn -0.267164 0.963651 -0.000000
vn 0.455186 0.858222 -0.237193
vn 0.511904 0.849944 -0.124699
vn 0.511904 0.849944 -0.124699
vn 0.455186 0.858222 -0.237193
vn 0.366847 0.871115 -0.326468
vn 0.366847 0.871115 -0.326468
vn 0.255533 0.887362 -0.383785
vn 0.255533 0.887362 -0.383785
vn 0.132141 0.905372 -0.403535
vn 0.132141 0.905372 -0.403535
vn 0.008749 0.923381 -0.383785
vn 0.008749 0.923381 -0.383785
vn -0.102565 0.939627 -0.326468
vn -0.102565 0.939627 -0.326468
vn -0.190904 0.952521 -0.237192
vn -0.190904 0.952521 -0.237192
vn -0.247620 0.960799 -0.124699
vn -0.247620 0.960799 -0.124699
vn -0.267162 0.963652 0.000000
vn -0.267162 0.963652 0.000000
vn -0.247620 0.960799 0.124699
vn -0.247620 0.960799 0.124699
vn -0.190904 0.952520 0.237192
vn -0.190904 0.952521 0.237193
vn -0.102565 0.939627 0.326468
vn -0.102565 0.939627 0.326468
vn 0.008749 0.923381 0.383785
vn 0.008749 0.923381 0.383785
vn 0.132141 0.905372 0.403535
vn 0.132141 0.905372 0.403535
vn 0.255533 0.887362 0.383785
vn 0.255533 0.887362 0.383785
vn 0.366847 0.871116 0.326467
vn 0.366847 0.871116 0.326467
vn 0.455186 0.858222 0.237192
vn 0.455186 0.858222 0.237193
vn 0.511902 0.849945 0.124699
vn 0.511902 0.849945 0.124699
vn 0.531446 0.847092 0.000000
vn 0.531446 0.847092 0.000000
vn 0.190904 -0.952520 -0.237193
vn 0.247621 -0.960798 -0.124699
vn 0.247621 -0.960798 -0.124699
vn 0.190904 -0.952520 -0.237193
vn 0.102565 -0.939627 -0.326468
vn 0.102565 -0.939627 -0.326468
vn -0.008749 -0.923381 -0.383785
vn -0.008749 -0.923381 -0.383785
vn -0.132141 -0.905372 -0.403535
vn -0.132141 -0.905372 -0.403535
vn -0.255533 -0.887362 -0.383785
vn -0.255533 -0.887362 -0.383785
vn -0.366847 -0.871115 -0.326467
vn -0.366847 -0.871116 -0.326468
vn -0.455186 -0.858222 -0.237192
vn -0.455186 -0.858222 -0.237192
vn -0.511902 -0.849945 -0.124699
vn -0.511902 -0.849945 -0.124699
vn -0.531444 -0.847093 0.000000
vn -0.531444 -0.847093 0.000000
vn -0.511902 -0.849945 0.124699
vn -0.511902 -0.849945 0.124699
vn -0.455186 -0.858222 0.237192
vn -0.455186 -0.858222 0.237192
vn -0.366847 -0.871116 0.326467
vn -0.366847 -0.871116 0.326468
vn -0.255533 -0.887362 0.383785
vn -0.255533 -0.887362 0.383785
vn -0.132141 -0.905372 0.403535
vn -0.132141 -0.905372 0.403535
vn -0.008749 -0.923381 0.383785
vn -0.008749 -0.923381 0.383785
vn 0.102565 -0.939627 0.326467
vn 0.102565 -0.939627 0.326467
vn 0.190904 -0.952521 0.237192
vn 0.190904 -0.952521 0.237192
vn 0.247619 -0.960799 0.124699
vn 0.247619 -0.960799 0.124699
vn 0.267164 -0.963651 0.000000
vn 0.267164 -0.963651 0.000000
vn -0.455186 -0.858222 0.237193
vn -0.511903 -0.849944 0.124699
vn -0.511903 -0.849944 0.124699
vn -0.455186 -0.858222 0.237193
vn -0.366846 -0.871116 0.326467
vn -0.366846 -0.871116 0.326467
vn -0.255533 -0.887363 0.383785
vn -0.255533 -0.887363 0.383785
vn -0.132141 -0.905372 0.403535
vn -0.132141 -0.905372 0.403535
vn -0.008749 -0.923381 0.383785
vn -0.008749 -0.923381 0.383785
vn 0.102565 -0.939627 0.326467
vn 0.102565 -0.939627 0.326467
vn 0.190904 -0.952520 0.237193
vn 0.190905 -0.952520 0.237193
vn 0.247622 -0.960798 0.124700
vn 0.247622 -0.960798 0.124700
vn 0.267165 -0.963651 -0.000000
vn 0.267165 -0.963651 -0.000000
vn 0.247622 -0.960798 -0.124700
vn 0.247622 -0.960798 -0.124700
vn 0.190904 -0.952521 -0.237193
vn 0.190904 -0.952521 -0.237192
vn 0.102564 -0.939627 -0.326467
vn 0.102564 -0.939627 -0.326467
vn -0.008749 -0.923381 -0.383785
vn -0.008749 -0.923381 -0.383785
vn -0.132141 -0.905372 -0.403535
vn -0.132141 -0.905372 -0.403535
vn -0.255533 -0.887362 -0.383785
vn -0.255533 -0.887362 -0.383785
vn -0.366847 -0.871115 -0.326468
vn -0.366847 -0.871115 -0.326468
vn -0.455186 -0.858222 -0.237193
vn -0.455187 -0.858222 -0.237193
vn -0.511904 -0.849944 -0.124700
vn -0.511904 -0.849944 -0.124700
vn -0.531446 -0.847092 -0.000000
vn -0.531446 -0.847092 -0.000000
s 1
g pTorus3
usemtl initialShadingGroup
f 2/2/1 1/1/2 21/22/3 22/23/4
f 3/3/5 2/2/1 22/23/4 23/24/6
f 4/4/7 3/3/5 23/24/6 24/25/8
f 5/5/9 4/4/7 24/25/8 25/26/10
f 6/6/11 5/5/9 25/26/10 26/27/12
f 7/7/13 6/6/11 26/27/12 27/28/14
f 8/8/15 7/7/13 27/28/14 28/29/16
f 9/9/17 8/8/15 28/29/16 29/30/18
f 10/10/19 9/9/17 29/30/18 30/31/20
f 11/11/21 10/10/19 30/31/20 31/32/22
f 12/12/23 11/11/21 31/32/22 32/33/24
f 13/13/25 12/12/23 32/33/24 33/34/26
f 14/14/27 13/13/25 33/34/26 34/35/28
f 15/15/29 14/14/27 34/35/28 35/36/30
f 16/16/31 15/15/29 35/36/30 36/37/32
f 17/17/33 16/16/31 36/37/32 37/38/34
f 18/18/35 17/17/33 37/38/34 38/39/36
f 19/19/37 18/18/35 38/39/36 39/40/38
f 20/20/39 19/19/37 39/40/38 40/41/40
f 1/21/2 20/20/39 40/41/40 21/42/3
s 2
f 22/23/41 21/22/42 41/43/43 42/44/44
f 23/24/45 22/23/41 42/44/44 43/45/46
f 24/25/47 23/24/45 43/45/46 44/46/48
f 25/26/49 24/25/47 44/46/48 45/47/50
f 26/27/51 25/26/49 45/47/50 46/48/52
f 27/28/53 26/27/51 46/48/52 47/49/54
f 28/29/55 27/28/53 47/49/54 48/50/56
f 29/30/57 28/29/55 48/50/56 49/51/58
f 30/31/59 29/30/57 49/51/58 50/52/60
f 31/32/61 30/31/59 50/52/60 51/53/62
f 32/33/63 31/32/61 51/53/62 52/54/64
f 33/34/65 32/33/63 52/54/64 53/55/66
f 34/35/67 33/34/65 53/55/66 54/56/68
f 35/36/69 34/35/67 54/56/68 55/57/70
f 36/37/71 35/36/69 55/57/70 56/58/72
f 37/38/73 36/37/71 56/58/72 57/59/74
f 38/39/75 37/38/73 57/59/74 58/60/76
f 39/40/77 38/39/75 58/60/76 59/61/78
f 40/41/79 39/40/77 59/61/78 60/62/80
f 21/42/42 40/41/79 60/62/80 41/63/43
s 3
f 42/44/81 41/43/82 61/64/83 62/65/84
f 43/45/85 42/44/81 62/65/84 63/66/86
f 44/46/87 43/45/85 63/66/86 64/67/88
f 45/47/89 44/46/87 64/67/88 65/68/90
f 46/48/91 45/47/89 65/68/90 66/69/92
f 47/49/93 46/48/91 66/69/92 67/70/94
f 48/50/95 47/49/93 67/70/94 68/71/96
f 49/51/97 48/50/95 68/71/96 69/72/98
f 50/52/99 49/51/97 69/72/98 70/73/100
f 51/53/101 50/52/99 70/73/100 71/74/102
f 52/54/103 51/53/101 71/74/102 72/75/104
f 53/55/105 52/54/103 72/75/104 73/76/106
f 54/56/107 53/55/105 73/76/106 74/77/108
f 55/57/109 54/56/107 74/77/108 75/78/110
f 56/58/111 55/57/109 75/78/110 76/79/112
f 57/59/113 56/58/111 76/79/112 77/80/114
f 58/60/115 57/59/113 77/80/114 78/81/116
f 59/61/117 58/60/115 78/81/116 79/82/118
f 60/62/119 59/61/117 79/82/118 80/83/120
f 41/63/82 60/62/119 80/83/120 61/84/83
s 4
f 62/65/121 61/64/122 1/85/123 2/86/124
f 63/66/125 62/65/121 2/86/124 3/87/126
f 64/67/127 63/66/125 3/87/126 4/88/128
f 65/68/129 64/67/127 4/88/128 5/89/130
f 66/69/131 65/68/129 5/89/130 6/90/132
f 67/70/133 66/69/131 6/90/132 7/91/134
f 68/71/135 67/70/133 7/91/134 8/92/136
f 69/72/137 68/71/135 8/92/136 9/93/138
f 70/73/139 69/72/137 9/93/138 10/94/140
f 71/74/141 70/73/139 10/94/140 11/95/142
f 72/75/143 71/74/141 11/95/142 12/96/144
f 73/76/145 72/75/143 12/96/144 13/97/146
f 74/77/147 73/76/145 13/97/146 14/98/148
f 75/78/149 74/77/147 14/98/148 15/99/150
f 76/79/151 75/78/149 15/99/150 16/100/152
f 77/80/153 76/79/151 16/100/152 17/101/154
f 78/81/155 77/80/153 17/101/154 18/102/156
f 79/82/157 78/81/155 18/102/156 19/103/158
f 80/83/159 79/82/157 19/103/158 20/104/160
f 61/84/122 80/83/159 20/104/160 1/105/123
