# This file uses centimeters as units for non-parametric coordinates.

mtllib anello 2.mtl
g default
v 21.067706 -2.126753 -6.880103
v 17.921262 -1.809124 -13.086734
v 13.020558 -1.314406 -18.012343
v 6.845312 -0.691024 -21.174777
v 0.000000 0.000000 -22.264478
v -6.845312 0.691024 -21.174776
v -13.020555 1.314406 -18.012339
v -17.921255 1.809124 -13.086729
v -21.067699 2.126753 -6.880100
v -22.151888 2.236200 0.000000
v -21.067699 2.126753 6.880100
v -17.921253 1.809124 13.086728
v -13.020553 1.314405 18.012335
v -6.845309 0.691024 21.174770
v -0.000001 0.000000 22.264470
v 6.845307 -0.691023 21.174769
v 13.020550 -1.314405 18.012333
v 17.921249 -1.809123 13.086727
v 21.067693 -2.126752 6.880099
v 22.151882 -2.236199 0.000000
v 22.228441 -1.724485 -7.242214
v 18.916394 -1.390139 -13.775509
v 13.757758 -0.869382 -18.960361
v 7.257499 -0.213191 -22.289240
v 0.051908 0.514203 -23.436292
v -7.153683 1.241597 -22.289238
v -13.653939 1.897788 -18.960357
v -18.812571 2.418544 -13.775504
v -22.124616 2.752890 -7.242211
v -23.265869 2.868097 0.000000
v -22.124616 2.752890 7.242211
v -18.812570 2.418544 13.775503
v -13.653937 1.897787 18.960353
v -7.153681 1.241596 22.289231
v 0.051907 0.514203 23.436284
v 7.257495 -0.213190 22.289230
v 13.757750 -0.869381 18.960351
v 18.916381 -1.390137 13.775502
v 22.228427 -1.724483 7.242209
v 23.369679 -1.839691 0.000000
v 23.285359 -2.350622 -7.604324
v 19.807709 -1.999558 -14.464284
v 14.391142 -1.452764 -19.908378
v 7.565870 -0.763763 -23.403701
v -0.000000 -0.000000 -24.608105
v -7.565870 0.763763 -23.403700
v -14.391140 1.452764 -19.908374
v -19.807702 1.999558 -14.464279
v -23.285349 2.350621 -7.604321
v -24.483664 2.471589 0.000000
v -23.285349 2.350621 7.604321
v -19.807700 1.999558 14.464278
v -14.391137 1.452764 19.908369
v -7.565868 0.763763 23.403691
v -0.000001 0.000000 24.608097
v 7.565866 -0.763763 23.403690
v 14.391134 -1.452763 19.908368
v 19.807696 -1.999557 14.464277
v 23.285343 -2.350620 7.604319
v 24.483659 -2.471589 0.000000
v 22.124625 -2.752891 -7.242214
v 18.812578 -2.418544 -13.775509
v 13.653942 -1.897788 -18.960361
v 7.153683 -1.241597 -22.289240
v -0.051908 -0.514203 -23.436292
v -7.257499 0.213191 -22.289238
v -13.757755 0.869382 -18.960357
v -18.916387 1.390138 -13.775504
v -22.228432 1.724484 -7.242211
v -23.369685 1.839692 0.000000
v -22.228432 1.724484 7.242211
v -18.916386 1.390138 13.775503
v -13.757753 0.869381 18.960353
v -7.257497 0.213190 22.289231
v -0.051909 -0.514203 23.436284
v 7.153679 -1.241596 22.289230
v 13.653934 -1.897787 18.960351
v 18.812565 -2.418543 13.775502
v 22.124611 -2.752889 7.242209
v 23.265863 -2.868097 0.000000
vt 0.000000 1.000000
vt 0.050000 1.000000
vt 0.100000 1.000000
vt 0.150000 1.000000
vt 0.200000 1.000000
vt 0.250000 1.000000
vt 0.300000 1.000000
vt 0.350000 1.000000
vt 0.400000 1.000000
vt 0.450000 1.000000
vt 0.500000 1.000000
vt 0.550000 1.000000
vt 0.600000 1.000000
vt 0.650000 1.000000
vt 0.700000 1.000000
vt 0.750000 1.000000
vt 0.800000 1.000000
vt 0.850000 1.000000
vt 0.900000 1.000000
vt 0.950000 1.000000
vt 1.000000 1.000000
vt 0.000000 0.750000
vt 0.050000 0.750000
vt 0.100000 0.750000
vt 0.150000 0.750000
vt 0.200000 0.750000
vt 0.250000 0.750000
vt 0.300000 0.750000
vt 0.350000 0.750000
vt 0.400000 0.750000
vt 0.450000 0.750000
vt 0.500000 0.750000
vt 0.550000 0.750000
vt 0.600000 0.750000
vt 0.650000 0.750000
vt 0.700000 0.750000
vt 0.750000 0.750000
vt 0.800000 0.750000
vt 0.850000 0.750000
vt 0.900000 0.750000
vt 0.950000 0.750000
vt 1.000000 0.750000
vt 0.000000 0.500000
vt 0.050000 0.500000
vt 0.100000 0.500000
vt 0.150000 0.500000
vt 0.200000 0.500000
vt 0.250000 0.500000
vt 0.300000 0.500000
vt 0.350000 0.500000
vt 0.400000 0.500000
vt 0.450000 0.500000
vt 0.500000 0.500000
vt 0.550000 0.500000
vt 0.600000 0.500000
vt 0.650000 0.500000
vt 0.700000 0.500000
vt 0.750000 0.500000
vt 0.800000 0.500000
vt 0.850000 0.500000
vt 0.900000 0.500000
vt 0.950000 0.500000
vt 1.000000 0.500000
vt 0.000000 0.250000
vt 0.050000 0.250000
vt 0.100000 0.250000
vt 0.150000 0.250000
vt 0.200000 0.250000
vt 0.250000 0.250000
vt 0.300000 0.250000
vt 0.350000 0.250000
vt 0.400000 0.250000
vt 0.450000 0.250000
vt 0.500000 0.250000
vt 0.550000 0.250000
vt 0.600000 0.250000
vt 0.650000 0.250000
vt 0.700000 0.250000
vt 0.750000 0.250000
vt 0.800000 0.250000
vt 0.850000 0.250000
vt 0.900000 0.250000
vt 0.950000 0.250000
vt 1.000000 0.250000
vt 0.000000 0.000000
vt 0.050000 0.000000
vt 0.100000 0.000000
vt 0.150000 0.000000
vt 0.200000 0.000000
vt 0.250000 0.000000
vt 0.300000 0.000000
vt 0.350000 0.000000
vt 0.400000 0.000000
vt 0.450000 0.000000
vt 0.500000 0.000000
vt 0.550000 0.000000
vt 0.600000 0.000000
vt 0.650000 0.000000
vt 0.700000 0.000000
vt 0.750000 0.000000
vt 0.800000 0.000000
vt 0.850000 0.000000
vt 0.900000 0.000000
vt 0.950000 0.000000
vt 1.000000 0.000000
vn -0.232919 0.943127 0.237192
vn -0.289947 0.948884 0.124699
vn -0.289947 0.948884 0.124699
vn -0.232919 0.943127 0.237192
vn -0.144095 0.934161 0.326467
vn -0.144095 0.934161 0.326467
vn -0.032171 0.922862 0.383785
vn -0.032171 0.922862 0.383785
vn 0.091897 0.910338 0.403535
vn 0.091897 0.910338 0.403535
vn 0.215966 0.897813 0.383785
vn 0.215966 0.897813 0.383785
vn 0.327890 0.886514 0.326467
vn 0.327890 0.886514 0.326467
vn 0.416713 0.877548 0.237192
vn 0.416713 0.877548 0.237192
vn 0.473742 0.871791 0.124699
vn 0.473742 0.871791 0.124699
vn 0.493392 0.869807 0.000000
vn 0.493392 0.869807 0.000000
vn 0.473742 0.871791 -0.124699
vn 0.473742 0.871791 -0.124699
vn 0.416713 0.877548 -0.237192
vn 0.416713 0.877548 -0.237192
vn 0.327890 0.886514 -0.326467
vn 0.327890 0.886514 -0.326467
vn 0.215966 0.897813 -0.383785
vn 0.215966 0.897813 -0.383785
vn 0.091897 0.910337 -0.403535
vn 0.091897 0.910337 -0.403535
vn -0.032172 0.922862 -0.383785
vn -0.032172 0.922862 -0.383785
vn -0.144096 0.934160 -0.326467
vn -0.144096 0.934160 -0.326467
vn -0.232919 0.943127 -0.237192
vn -0.232919 0.943127 -0.237192
vn -0.289947 0.948884 -0.124699
vn -0.289947 0.948884 -0.124699
vn -0.309597 0.950868 -0.000000
vn -0.309597 0.950868 -0.000000
vn 0.416713 0.877548 -0.237192
vn 0.473742 0.871791 -0.124699
vn 0.473742 0.871791 -0.124699
vn 0.416714 0.877548 -0.237192
vn 0.327890 0.886514 -0.326467
vn 0.327890 0.886514 -0.326467
vn 0.215966 0.897813 -0.383785
vn 0.215966 0.897813 -0.383785
vn 0.091897 0.910337 -0.403536
vn 0.091897 0.910337 -0.403536
vn -0.032172 0.922862 -0.383785
vn -0.032172 0.922862 -0.383785
vn -0.144096 0.934160 -0.326467
vn -0.144096 0.934161 -0.326467
vn -0.232919 0.943127 -0.237192
vn -0.232919 0.943127 -0.237192
vn -0.289947 0.948884 -0.124699
vn -0.289947 0.948884 -0.124699
vn -0.309598 0.950868 0.000000
vn -0.309598 0.950868 0.000000
vn -0.289947 0.948884 0.124699
vn -0.289947 0.948884 0.124699
vn -0.232919 0.943127 0.237192
vn -0.232919 0.943127 0.237192
vn -0.144096 0.934160 0.326467
vn -0.144096 0.934160 0.326467
vn -0.032172 0.922862 0.383785
vn -0.032172 0.922862 0.383785
vn 0.091897 0.910337 0.403536
vn 0.091897 0.910337 0.403536
vn 0.215966 0.897813 0.383785
vn 0.215966 0.897813 0.383785
vn 0.327890 0.886514 0.326467
vn 0.327890 0.886514 0.326467
vn 0.416714 0.877548 0.237192
vn 0.416714 0.877548 0.237192
vn 0.473742 0.871791 0.124699
vn 0.473742 0.871791 0.124699
vn 0.493392 0.869807 0.000000
vn 0.493392 0.869807 0.000000
vn 0.232919 -0.943127 -0.237192
vn 0.289947 -0.948884 -0.124699
vn 0.289947 -0.948884 -0.124699
vn 0.232919 -0.943127 -0.237192
vn 0.144096 -0.934160 -0.326467
vn 0.144096 -0.934160 -0.326467
vn 0.032171 -0.922862 -0.383785
vn 0.032172 -0.922862 -0.383785
vn -0.091897 -0.910337 -0.403535
vn -0.091897 -0.910337 -0.403535
vn -0.215966 -0.897813 -0.383785
vn -0.215966 -0.897813 -0.383785
vn -0.327890 -0.886514 -0.326467
vn -0.327890 -0.886514 -0.326467
vn -0.416714 -0.877548 -0.237192
vn -0.416713 -0.877548 -0.237192
vn -0.473742 -0.871791 -0.124699
vn -0.473742 -0.871791 -0.124699
vn -0.493392 -0.869807 0.000000
vn -0.493392 -0.869807 0.000000
vn -0.473742 -0.871791 0.124699
vn -0.473741 -0.871791 0.124699
vn -0.416713 -0.877548 0.237192
vn -0.416713 -0.877548 0.237192
vn -0.327890 -0.886514 0.326467
vn -0.327890 -0.886514 0.326467
vn -0.215966 -0.897813 0.383785
vn -0.215966 -0.897813 0.383785
vn -0.091897 -0.910337 0.403536
vn -0.091897 -0.910337 0.403536
vn 0.032172 -0.922862 0.383785
vn 0.032172 -0.922862 0.383785
vn 0.144096 -0.934160 0.326467
vn 0.144096 -0.934160 0.326467
vn 0.232919 -0.943127 0.237192
vn 0.232919 -0.943127 0.237192
vn 0.289947 -0.948884 0.124699
vn 0.289947 -0.948884 0.124699
vn 0.309598 -0.950868 0.000000
vn 0.309598 -0.950868 0.000000
vn -0.416713 -0.877548 0.237192
vn -0.473741 -0.871791 0.124699
vn -0.473741 -0.871791 0.124699
vn -0.416713 -0.877548 0.237192
vn -0.327890 -0.886514 0.326467
vn -0.327890 -0.886514 0.326467
vn -0.215966 -0.897813 0.383785
vn -0.215966 -0.897813 0.383785
vn -0.091897 -0.910338 0.403535
vn -0.091897 -0.910338 0.403535
vn 0.032171 -0.922862 0.383785
vn 0.032171 -0.922862 0.383785
vn 0.144095 -0.934161 0.326467
vn 0.144095 -0.934161 0.326467
vn 0.232919 -0.943127 0.237192
vn 0.232919 -0.943127 0.237192
vn 0.289947 -0.948884 0.124699
vn 0.289947 -0.948884 0.124699
vn 0.309598 -0.950868 0.000000
vn 0.309598 -0.950868 0.000000
vn 0.289947 -0.948884 -0.124699
vn 0.289947 -0.948884 -0.124699
vn 0.232919 -0.943127 -0.237192
vn 0.232919 -0.943127 -0.237192
vn 0.144095 -0.934160 -0.326467
vn 0.144095 -0.934161 -0.326467
vn 0.032172 -0.922862 -0.383785
vn 0.032172 -0.922862 -0.383785
vn -0.091897 -0.910337 -0.403535
vn -0.091897 -0.910337 -0.403535
vn -0.215966 -0.897813 -0.383785
vn -0.215966 -0.897813 -0.383785
vn -0.327890 -0.886514 -0.326467
vn -0.327890 -0.886514 -0.326467
vn -0.416713 -0.877548 -0.237192
vn -0.416713 -0.877548 -0.237192
vn -0.473741 -0.871791 -0.124699
vn -0.473742 -0.871791 -0.124699
vn -0.493392 -0.869807 -0.000000
vn -0.493392 -0.869807 -0.000000
s 1
g pTorus4
usemtl initialShadingGroup
f 2/2/1 1/1/2 21/22/3 22/23/4
f 3/3/5 2/2/1 22/23/4 23/24/6
f 4/4/7 3/3/5 23/24/6 24/25/8
f 5/5/9 4/4/7 24/25/8 25/26/10
f 6/6/11 5/5/9 25/26/10 26/27/12
f 7/7/13 6/6/11 26/27/12 27/28/14
f 8/8/15 7/7/13 27/28/14 28/29/16
f 9/9/17 8/8/15 28/29/16 29/30/18
f 10/10/19 9/9/17 29/30/18 30/31/20
f 11/11/21 10/10/19 30/31/20 31/32/22
f 12/12/23 11/11/21 31/32/22 32/33/24
f 13/13/25 12/12/23 32/33/24 33/34/26
f 14/14/27 13/13/25 33/34/26 34/35/28
f 15/15/29 14/14/27 34/35/28 35/36/30
f 16/16/31 15/15/29 35/36/30 36/37/32
f 17/17/33 16/16/31 36/37/32 37/38/34
f 18/18/35 17/17/33 37/38/34 38/39/36
f 19/19/37 18/18/35 38/39/36 39/40/38
f 20/20/39 19/19/37 39/40/38 40/41/40
f 1/21/2 20/20/39 40/41/40 21/42/3
s 2
f 22/23/41 21/22/42 41/43/43 42/44/44
f 23/24/45 22/23/41 42/44/44 43/45/46
f 24/25/47 23/24/45 43/45/46 44/46/48
f 25/26/49 24/25/47 44/46/48 45/47/50
f 26/27/51 25/26/49 45/47/50 46/48/52
f 27/28/53 26/27/51 46/48/52 47/49/54
f 28/29/55 27/28/53 47/49/54 48/50/56
f 29/30/57 28/29/55 48/50/56 49/51/58
f 30/31/59 29/30/57 49/51/58 50/52/60
f 31/32/61 30/31/59 50/52/60 51/53/62
f 32/33/63 31/32/61 51/53/62 52/54/64
f 33/34/65 32/33/63 52/54/64 53/55/66
f 34/35/67 33/34/65 53/55/66 54/56/68
f 35/36/69 34/35/67 54/56/68 55/57/70
f 36/37/71 35/36/69 55/57/70 56/58/72
f 37/38/73 36/37/71 56/58/72 57/59/74
f 38/39/75 37/38/73 57/59/74 58/60/76
f 39/40/77 38/39/75 58/60/76 59/61/78
f 40/41/79 39/40/77 59/61/78 60/62/80
f 21/42/42 40/41/79 60/62/80 41/63/43
s 3
f 42/44/81 41/43/82 61/64/83 62/65/84
f 43/45/85 42/44/81 62/65/84 63/66/86
f 44/46/87 43/45/85 63/66/86 64/67/88
f 45/47/89 44/46/87 64/67/88 65/68/90
f 46/48/91 45/47/89 65/68/90 66/69/92
f 47/49/93 46/48/91 66/69/92 67/70/94
f 48/50/95 47/49/93 67/70/94 68/71/96
f 49/51/97 48/50/95 68/71/96 69/72/98
f 50/52/99 49/51/97 69/72/98 70/73/100
f 51/53/101 50/52/99 70/73/100 71/74/102
f 52/54/103 51/53/101 71/74/102 72/75/104
f 53/55/105 52/54/103 72/75/104 73/76/106
f 54/56/107 53/55/105 73/76/106 74/77/108
f 55/57/109 54/56/107 74/77/108 75/78/110
f 56/58/111 55/57/109 75/78/110 76/79/112
f 57/59/113 56/58/111 76/79/112 77/80/114
f 58/60/115 57/59/113 77/80/114 78/81/116
f 59/61/117 58/60/115 78/81/116 79/82/118
f 60/62/119 59/61/117 79/82/118 80/83/120
f 41/63/82 60/62/119 80/83/120 61/84/83
s 4
f 62/65/121 61/64/122 1/85/123 2/86/124
f 63/66/125 62/65/121 2/86/124 3/87/126
f 64/67/127 63/66/125 3/87/126 4/88/128
f 65/68/129 64/67/127 4/88/128 5/89/130
f 66/69/131 65/68/129 5/89/130 6/90/132
f 67/70/133 66/69/131 6/90/132 7/91/134
f 68/71/135 67/70/133 7/91/134 8/92/136
f 69/72/137 68/71/135 8/92/136 9/93/138
f 70/73/139 69/72/137 9/93/138 10/94/140
f 71/74/141 70/73/139 10/94/140 11/95/142
f 72/75/143 71/74/141 11/95/142 12/96/144
f 73/76/145 72/75/143 12/96/144 13/97/146
f 74/77/147 73/76/145 13/97/146 14/98/148
f 75/78/149 74/77/147 14/98/148 15/99/150
f 76/79/151 75/78/149 15/99/150 16/100/152
f 77/80/153 76/79/151 16/100/152 17/101/154
f 78/81/155 77/80/153 17/101/154 18/102/156
f 79/82/157 78/81/155 18/102/156 19/103/158
f 80/83/159 79/82/157 19/103/158 20/104/160
f 61/84/122 80/83/159 20/104/160 1/105/123
