# This file uses centimeters as units for non-parametric coordinates.

mtllib Cannoni.mtl
g default
v -0.117414 0.119624 1.241762
v -0.271735 0.183546 1.241762
v -0.426057 0.119624 1.241762
v -0.489978 -0.034698 1.241762
v -0.426057 -0.189019 1.241762
v -0.271735 -0.252942 1.241762
v -0.117414 -0.189019 1.241762
v -0.053491 -0.034698 1.241762
v -0.117414 0.119624 0.301101
v -0.271735 0.183546 0.301101
v -0.426057 0.119624 0.301101
v -0.489978 -0.034698 0.301101
v -0.426057 -0.189019 0.301101
v -0.271735 -0.252942 0.301101
v -0.117414 -0.189019 0.301101
v -0.053491 -0.034698 0.301101
v -0.271735 -0.034698 0.301101
v -0.198730 0.038307 1.241762
v -0.271735 0.068547 1.241762
v -0.344739 0.038307 1.241762
v -0.374979 -0.034698 1.241762
v -0.344739 -0.107702 1.241762
v -0.271735 -0.137942 1.241762
v -0.198730 -0.107702 1.241762
v -0.168491 -0.034698 1.241762
v -0.198730 0.038307 2.598640
v -0.271735 0.068547 2.598640
v -0.271735 -0.034698 2.598640
v -0.344739 0.038307 2.598640
v -0.374979 -0.034698 2.598640
v -0.344739 -0.107702 2.598640
v -0.271735 -0.137942 2.598640
v -0.198730 -0.107702 2.598640
v -0.168491 -0.034698 2.598640
v 0.432397 0.119624 1.241762
v 0.278076 0.183546 1.241762
v 0.123755 0.119624 1.241762
v 0.059833 -0.034698 1.241762
v 0.123755 -0.189019 1.241762
v 0.278076 -0.252942 1.241762
v 0.432397 -0.189019 1.241762
v 0.496320 -0.034698 1.241762
v 0.432397 0.119624 0.301101
v 0.278076 0.183546 0.301101
v 0.123755 0.119624 0.301101
v 0.059833 -0.034698 0.301101
v 0.123755 -0.189019 0.301101
v 0.278076 -0.252942 0.301101
v 0.432397 -0.189019 0.301101
v 0.496320 -0.034698 0.301101
v 0.278076 -0.034698 0.301101
v 0.351080 0.038307 1.241762
v 0.278076 0.068547 1.241762
v 0.205072 0.038307 1.241762
v 0.174832 -0.034698 1.241762
v 0.205072 -0.107702 1.241762
v 0.278076 -0.137942 1.241762
v 0.351080 -0.107702 1.241762
v 0.381320 -0.034698 1.241762
v 0.351080 0.038307 2.598640
v 0.278076 0.068547 2.598640
v 0.278076 -0.034698 2.598640
v 0.205072 0.038307 2.598640
v 0.174832 -0.034698 2.598640
v 0.205072 -0.107702 2.598640
v 0.278076 -0.137942 2.598640
v 0.351080 -0.107702 2.598640
v 0.381320 -0.034698 2.598640
v -0.000729 0.363560 -0.000894
v -0.000729 -0.388664 -0.000895
v -0.000728 0.363560 0.967355
v -0.000728 -0.388665 0.967355
v -0.656900 -0.388664 0.683756
v -0.656900 0.363561 0.683756
v 0.655440 0.363560 0.683762
v 0.655440 -0.388664 0.683759
v 0.967520 0.363561 -0.000896
v 0.967521 -0.388664 -0.000899
v 0.683926 0.363561 -0.685551
v 0.683925 -0.388664 -0.685554
v -0.000724 0.363561 -0.969144
v -0.000724 -0.388664 -0.969144
v -0.685380 0.363561 -0.685552
v -0.685380 -0.388664 -0.685552
v -0.968978 0.363561 -0.000902
v -0.968978 -0.388664 -0.000900
v -0.000729 0.256135 1.108720
v -0.000729 -0.281240 1.108720
v -0.656899 -0.281239 0.940654
v -0.656899 0.256136 0.940654
v 0.655440 0.256135 0.940659
v 0.655440 -0.281240 0.940657
v -0.000727 0.256136 0.547839
v -0.000727 -0.281239 0.547839
v -0.513240 -0.281239 0.379773
v -0.513240 0.256136 0.379773
v 0.511784 0.256136 0.379777
v 0.511784 -0.281239 0.379776
vt 0.566858 0.234564
vt 0.554422 0.330182
vt 0.537442 0.327974
vt 0.549879 0.232355
vt 0.520463 0.325765
vt 0.532900 0.230147
vt 0.503484 0.323557
vt 0.515920 0.227938
vt 0.486504 0.321348
vt 0.498941 0.225730
vt 0.469525 0.319140
vt 0.481962 0.223522
vt 0.452546 0.316932
vt 0.464982 0.221313
vt 0.435566 0.314723
vt 0.448003 0.219105
vt 0.418587 0.312515
vt 0.431024 0.216896
vt 0.700974 0.488811
vt 0.679061 0.498662
vt 0.687561 0.476280
vt 0.701459 0.507158
vt 0.688873 0.520511
vt 0.670541 0.521086
vt 0.657193 0.508517
vt 0.656649 0.490192
vt 0.669223 0.476846
vt 0.808559 0.594368
vt 0.789571 0.606195
vt 0.794634 0.584405
vt 0.777743 0.587206
vt 0.767780 0.601132
vt 0.770581 0.618023
vt 0.784507 0.627986
vt 0.801398 0.625184
vt 0.811361 0.611259
vt 0.734445 0.523277
vt 0.707497 0.509618
vt 0.706863 0.486209
vt 0.735578 0.476814
vt 0.700794 0.555330
vt 0.691394 0.526616
vt 0.654330 0.554199
vt 0.667990 0.527252
vt 0.622283 0.520540
vt 0.650999 0.511146
vt 0.623418 0.474082
vt 0.650366 0.487744
vt 0.657068 0.442031
vt 0.666463 0.470747
vt 0.703526 0.443162
vt 0.689864 0.470109
vt 0.153000 0.523464
vt 0.140564 0.619082
vt 0.123584 0.616874
vt 0.136021 0.521255
vt 0.106605 0.614665
vt 0.119042 0.519047
vt 0.089626 0.612457
vt 0.102062 0.516838
vt 0.072646 0.610249
vt 0.085083 0.514630
vt 0.055667 0.608040
vt 0.068104 0.512422
vt 0.038688 0.605832
vt 0.051124 0.510213
vt 0.021708 0.603623
vt 0.034145 0.508005
vt 0.004729 0.601415
vt 0.017166 0.505796
vt 0.691274 0.713200
vt 0.669361 0.723051
vt 0.677861 0.700669
vt 0.691759 0.731547
vt 0.679173 0.744900
vt 0.660841 0.745475
vt 0.647493 0.732906
vt 0.646949 0.714581
vt 0.659523 0.701235
vt 0.866758 0.610716
vt 0.847769 0.622544
vt 0.852833 0.600753
vt 0.835941 0.603555
vt 0.825979 0.617480
vt 0.828780 0.634372
vt 0.842706 0.644335
vt 0.859597 0.641533
vt 0.869560 0.627608
vt 0.724746 0.747666
vt 0.697797 0.734008
vt 0.697164 0.710599
vt 0.725878 0.701204
vt 0.691094 0.779719
vt 0.681694 0.751005
vt 0.644630 0.778589
vt 0.658291 0.751641
vt 0.612583 0.744929
vt 0.641299 0.735535
vt 0.613718 0.698471
vt 0.640666 0.712133
vt 0.647368 0.666421
vt 0.656763 0.695136
vt 0.693826 0.667551
vt 0.680164 0.694499
vt 0.050101 0.484610
vt 0.059198 0.484796
vt 0.066676 0.485895
vt 0.057373 0.493172
vt 0.047273 0.492550
vt 0.040370 0.489604
vt 0.028321 0.499041
vt 0.017151 0.471864
vt 0.028347 0.461451
vt 0.033203 0.477480
vt 0.015188 0.445687
vt 0.034022 0.445703
vt 0.036648 0.425819
vt 0.049533 0.439015
vt 0.067158 0.426610
vt 0.066155 0.444824
vt 0.088925 0.449540
vt 0.075280 0.459958
vt 0.085671 0.485525
vt 0.066902 0.471897
vt 0.051213 0.463557
vt 0.058620 0.500159
vt 0.049718 0.459131
vt 0.048991 0.474507
vt 0.058242 0.497963
vt 0.074982 0.486381
vt 0.064371 0.476571
vt 0.049070 0.477099
vt 0.035058 0.484409
vt 0.037914 0.497743
vn 0.382685 0.923879 0.000000
vn 0.382685 0.923879 0.000000
vn 0.382685 0.923879 0.000000
vn 0.382685 0.923879 0.000000
vn -0.382683 0.923880 0.000000
vn -0.382683 0.923880 0.000000
vn -0.382683 0.923880 0.000000
vn -0.382683 0.923880 0.000000
vn -0.923881 0.382680 0.000000
vn -0.923881 0.382680 0.000000
vn -0.923881 0.382680 0.000000
vn -0.923881 0.382680 0.000000
vn -0.923881 -0.382680 0.000000
vn -0.923881 -0.382680 0.000000
vn -0.923881 -0.382680 0.000000
vn -0.923881 -0.382680 0.000000
vn -0.382683 -0.923880 0.000000
vn -0.382683 -0.923880 0.000000
vn -0.382683 -0.923880 0.000000
vn -0.382683 -0.923880 0.000000
vn 0.382685 -0.923879 0.000000
vn 0.382685 -0.923879 0.000000
vn 0.382685 -0.923879 0.000000
vn 0.382685 -0.923879 0.000000
vn 0.923879 -0.382685 0.000000
vn 0.923879 -0.382685 0.000000
vn 0.923879 -0.382685 0.000000
vn 0.923879 -0.382685 0.000000
vn 0.923879 0.382685 0.000000
vn 0.923879 0.382685 0.000000
vn 0.923879 0.382685 0.000000
vn 0.923879 0.382685 0.000000
vn 0.000000 0.000000 1.000000
vn 0.000000 0.000000 1.000000
vn -0.000003 0.000000 1.000000
vn 0.000003 0.000000 1.000000
vn 0.000000 0.000000 1.000000
vn 0.000001 0.000000 1.000000
vn 0.000000 0.000000 1.000000
vn -0.000001 0.000000 1.000000
vn 0.000000 0.000000 1.000000
vn 0.000000 0.000000 -1.000000
vn -0.000000 0.000000 -1.000000
vn -0.000000 0.000000 -1.000000
vn -0.000000 0.000000 -1.000000
vn 0.000000 0.000000 -1.000000
vn -0.000000 0.000000 -1.000000
vn -0.000000 0.000000 -1.000000
vn 0.000000 0.000000 -1.000000
vn 0.000000 0.000000 -1.000000
vn 0.000001 0.000000 1.000000
vn 0.000001 0.000000 1.000000
vn 0.000001 0.000000 1.000000
vn 0.000001 0.000000 1.000000
vn 0.000000 0.000000 1.000000
vn 0.000000 0.000000 1.000000
vn 0.000000 0.000000 1.000000
vn 0.000000 0.000000 1.000000
vn 0.000000 0.000000 1.000000
vn 0.000000 0.000000 1.000000
vn 0.000000 0.000000 1.000000
vn 0.000000 0.000000 1.000000
vn 0.000000 0.000000 1.000000
vn 0.000000 0.000000 1.000000
vn 0.000000 0.000000 1.000000
vn 0.000000 0.000000 1.000000
vn -0.000001 0.000000 1.000000
vn -0.000001 0.000000 1.000000
vn -0.000001 0.000000 1.000000
vn -0.000001 0.000000 1.000000
vn 0.000000 0.000000 1.000000
vn 0.000000 0.000000 1.000000
vn 0.000000 0.000000 1.000000
vn 0.000000 0.000000 1.000000
vn 0.000000 0.000000 1.000000
vn 0.000000 0.000000 1.000000
vn 0.000000 0.000000 1.000000
vn 0.000000 0.000000 1.000000
vn 0.000000 0.000000 1.000000
vn 0.000000 0.000000 1.000000
vn 0.000000 0.000000 1.000000
vn 0.000000 0.000000 1.000000
vn 0.382684 0.923879 0.000000
vn 0.382684 0.923879 0.000000
vn 0.382684 0.923879 0.000000
vn 0.382684 0.923879 0.000000
vn -0.382684 0.923879 0.000000
vn -0.382684 0.923879 0.000000
vn -0.382684 0.923879 0.000000
vn -0.382684 0.923879 0.000000
vn -0.923877 0.382689 0.000000
vn -0.923877 0.382689 0.000000
vn -0.923877 0.382689 0.000000
vn -0.923877 0.382689 0.000000
vn -0.923877 -0.382689 0.000000
vn -0.923877 -0.382689 0.000000
vn -0.923877 -0.382689 0.000000
vn -0.923877 -0.382689 0.000000
vn -0.382683 -0.923880 0.000000
vn -0.382683 -0.923880 0.000000
vn -0.382683 -0.923880 0.000000
vn -0.382683 -0.923880 0.000000
vn 0.382682 -0.923880 0.000000
vn 0.382682 -0.923880 0.000000
vn 0.382682 -0.923880 0.000000
vn 0.382682 -0.923880 0.000000
vn 0.923882 -0.382679 0.000000
vn 0.923882 -0.382679 0.000000
vn 0.923882 -0.382679 0.000000
vn 0.923882 -0.382679 0.000000
vn 0.923882 0.382679 0.000000
vn 0.923882 0.382679 0.000000
vn 0.923882 0.382679 0.000000
vn 0.923882 0.382679 0.000000
vn 0.382685 0.923879 0.000000
vn 0.382685 0.923879 0.000000
vn 0.382685 0.923879 0.000000
vn 0.382685 0.923879 0.000000
vn -0.382684 0.923880 0.000000
vn -0.382684 0.923880 0.000000
vn -0.382684 0.923880 0.000000
vn -0.382684 0.923880 0.000000
vn -0.923881 0.382680 0.000000
vn -0.923881 0.382680 0.000000
vn -0.923881 0.382680 0.000000
vn -0.923881 0.382680 0.000000
vn -0.923881 -0.382680 0.000000
vn -0.923881 -0.382680 0.000000
vn -0.923881 -0.382680 0.000000
vn -0.923881 -0.382680 0.000000
vn -0.382684 -0.923880 0.000000
vn -0.382684 -0.923880 0.000000
vn -0.382684 -0.923880 0.000000
vn -0.382684 -0.923880 0.000000
vn 0.382685 -0.923879 0.000000
vn 0.382685 -0.923879 0.000000
vn 0.382685 -0.923879 0.000000
vn 0.382685 -0.923879 0.000000
vn 0.923879 -0.382685 0.000000
vn 0.923879 -0.382685 0.000000
vn 0.923879 -0.382685 0.000000
vn 0.923879 -0.382685 0.000000
vn 0.923879 0.382685 0.000000
vn 0.923879 0.382685 0.000000
vn 0.923879 0.382685 0.000000
vn 0.923879 0.382685 0.000000
vn 0.000000 0.000000 1.000000
vn 0.000000 0.000000 1.000000
vn -0.000003 0.000000 1.000000
vn 0.000003 0.000000 1.000000
vn 0.000000 0.000000 1.000000
vn 0.000001 0.000000 1.000000
vn 0.000000 0.000000 1.000000
vn -0.000001 0.000000 1.000000
vn 0.000000 0.000000 1.000000
vn 0.000000 0.000000 -1.000000
vn -0.000000 0.000000 -1.000000
vn -0.000000 0.000000 -1.000000
vn -0.000000 0.000000 -1.000000
vn 0.000000 0.000000 -1.000000
vn -0.000000 0.000000 -1.000000
vn -0.000000 0.000000 -1.000000
vn 0.000000 0.000000 -1.000000
vn 0.000000 0.000000 -1.000000
vn 0.000001 0.000000 1.000000
vn 0.000001 0.000000 1.000000
vn 0.000001 0.000000 1.000000
vn 0.000001 0.000000 1.000000
vn 0.000000 0.000000 1.000000
vn 0.000000 0.000000 1.000000
vn 0.000000 0.000000 1.000000
vn 0.000000 0.000000 1.000000
vn 0.000000 0.000000 1.000000
vn 0.000000 0.000000 1.000000
vn 0.000000 0.000000 1.000000
vn 0.000000 0.000000 1.000000
vn 0.000000 0.000000 1.000000
vn 0.000000 0.000000 1.000000
vn 0.000000 0.000000 1.000000
vn 0.000000 0.000000 1.000000
vn -0.000001 0.000000 1.000000
vn -0.000001 0.000000 1.000000
vn -0.000001 0.000000 1.000000
vn -0.000001 0.000000 1.000000
vn 0.000000 0.000000 1.000000
vn 0.000000 0.000000 1.000000
vn 0.000000 0.000000 1.000000
vn 0.000000 0.000000 1.000000
vn 0.000000 0.000000 1.000000
vn 0.000000 0.000000 1.000000
vn 0.000000 0.000000 1.000000
vn 0.000000 0.000000 1.000000
vn 0.000000 0.000000 1.000000
vn 0.000000 0.000000 1.000000
vn 0.000000 0.000000 1.000000
vn 0.000000 0.000000 1.000000
vn 0.382686 0.923878 0.000000
vn 0.382686 0.923878 0.000000
vn 0.382686 0.923878 0.000000
vn 0.382686 0.923878 0.000000
vn -0.382686 0.923878 0.000000
vn -0.382686 0.923878 0.000000
vn -0.382686 0.923878 0.000000
vn -0.382686 0.923878 0.000000
vn -0.923877 0.382689 0.000000
vn -0.923877 0.382689 0.000000
vn -0.923877 0.382689 0.000000
vn -0.923877 0.382689 0.000000
vn -0.923877 -0.382689 0.000000
vn -0.923877 -0.382689 0.000000
vn -0.923877 -0.382689 0.000000
vn -0.923877 -0.382689 0.000000
vn -0.382685 -0.923879 0.000000
vn -0.382685 -0.923879 0.000000
vn -0.382685 -0.923879 0.000000
vn -0.382685 -0.923879 0.000000
vn 0.382685 -0.923879 0.000000
vn 0.382685 -0.923879 0.000000
vn 0.382685 -0.923879 0.000000
vn 0.382685 -0.923879 0.000000
vn 0.923879 -0.382684 0.000000
vn 0.923879 -0.382684 0.000000
vn 0.923879 -0.382684 0.000000
vn 0.923879 -0.382684 0.000000
vn 0.923879 0.382684 0.000000
vn 0.923879 0.382684 0.000000
vn 0.923879 0.382684 0.000000
vn 0.923879 0.382684 0.000000
vn -0.311599 0.000000 0.950214
vn -0.311599 0.000000 0.950214
vn -0.311599 0.000000 0.950214
vn -0.311599 0.000000 0.950214
vn 0.311594 -0.000002 0.950215
vn 0.311594 -0.000002 0.950215
vn 0.311594 -0.000002 0.950215
vn 0.311594 -0.000002 0.950215
vn 0.909930 -0.000001 0.414763
vn 0.909930 -0.000001 0.414763
vn 0.909930 -0.000001 0.414763
vn 0.909929 -0.000001 0.414763
vn 0.923879 0.000001 -0.382685
vn 0.923879 0.000001 -0.382685
vn 0.923879 0.000001 -0.382685
vn 0.923879 0.000001 -0.382685
vn 0.382684 0.000002 -0.923879
vn 0.382684 0.000002 -0.923879
vn 0.382684 0.000002 -0.923879
vn 0.382684 0.000002 -0.923879
vn -0.382682 0.000000 -0.923880
vn -0.382682 0.000000 -0.923880
vn -0.382682 0.000000 -0.923880
vn -0.382682 0.000000 -0.923880
vn -0.923876 0.000000 -0.382691
vn -0.923876 0.000000 -0.382691
vn -0.923876 0.000000 -0.382691
vn -0.923876 0.000000 -0.382691
vn -0.909930 0.000001 0.414762
vn -0.909930 0.000001 0.414762
vn -0.909930 0.000001 0.414762
vn -0.909930 0.000001 0.414762
vn -0.000001 -1.000000 -0.000001
vn -0.000001 -1.000000 -0.000001
vn -0.000001 -1.000000 -0.000001
vn 0.000001 1.000000 0.000000
vn 0.000001 1.000000 0.000000
vn 0.000001 1.000000 0.000000
vn 0.000000 1.000000 0.000000
vn 0.000000 1.000000 0.000000
vn 0.000000 1.000000 0.000000
vn 0.000000 -1.000000 -0.000001
vn 0.000000 -1.000000 -0.000001
vn 0.000000 -1.000000 -0.000001
vn -0.000000 1.000000 0.000001
vn -0.000000 1.000000 0.000001
vn -0.000000 1.000000 0.000001
vn -0.000000 -1.000000 -0.000000
vn -0.000000 -1.000000 -0.000000
vn -0.000000 -1.000000 -0.000000
vn -0.000000 1.000000 0.000001
vn -0.000000 1.000000 0.000001
vn -0.000000 1.000000 0.000001
vn -0.000000 -1.000000 -0.000001
vn -0.000000 -1.000000 -0.000001
vn -0.000000 -1.000000 -0.000001
vn -0.000000 1.000000 0.000001
vn -0.000000 1.000000 0.000001
vn -0.000000 1.000000 0.000001
vn 0.000000 -1.000000 -0.000000
vn 0.000000 -1.000000 -0.000000
vn 0.000000 -1.000000 -0.000000
vn -0.000001 1.000000 0.000001
vn -0.000001 1.000000 0.000001
vn -0.000001 1.000000 0.000001
vn 0.000000 -1.000000 -0.000000
vn 0.000000 -1.000000 -0.000000
vn 0.000000 -1.000000 -0.000000
vn 0.000000 1.000000 -0.000000
vn 0.000000 1.000000 -0.000000
vn 0.000000 1.000000 -0.000000
vn -0.000000 -1.000000 0.000000
vn -0.000000 -1.000000 0.000000
vn -0.000000 -1.000000 0.000000
vn 0.000000 1.000000 -0.000000
vn 0.000000 1.000000 -0.000000
vn 0.000000 1.000000 -0.000000
vn -0.000000 -1.000000 -0.000000
vn -0.000000 -1.000000 -0.000000
vn -0.000000 -1.000000 -0.000000
vn -0.161268 -0.868581 0.468572
vn -0.161268 -0.868581 0.468572
vn -0.161268 -0.868581 0.468572
vn -0.161268 -0.868581 0.468572
vn -1.000000 0.000000 0.000004
vn -1.000000 0.000000 0.000004
vn -1.000000 0.000000 0.000004
vn -1.000000 0.000000 0.000004
vn -0.161266 0.868581 0.468572
vn -0.161266 0.868581 0.468572
vn -0.161266 0.868581 0.468572
vn -0.161266 0.868581 0.468572
vn 0.161264 0.868581 0.468573
vn 0.161264 0.868581 0.468573
vn 0.161264 0.868581 0.468573
vn 0.161264 0.868581 0.468573
vn 1.000000 0.000000 0.000000
vn 1.000000 0.000000 0.000000
vn 1.000000 0.000000 0.000000
vn 1.000000 0.000000 0.000000
vn 0.161266 -0.868582 0.468571
vn 0.161266 -0.868582 0.468571
vn 0.161266 -0.868582 0.468571
vn 0.161266 -0.868582 0.468571
vn 0.000001 1.000000 0.000001
vn 0.000001 1.000000 0.000001
vn 0.000001 1.000000 0.000001
vn 0.000001 1.000000 0.000001
vn 0.968729 0.000000 0.248121
vn 0.968729 0.000000 0.248121
vn 0.968729 0.000000 0.248121
vn 0.968729 0.000000 0.248121
vn -0.000000 -1.000000 -0.000000
vn -0.000000 -1.000000 -0.000000
vn -0.000000 -1.000000 -0.000000
vn -0.000000 -1.000000 -0.000000
vn -0.000000 -1.000000 -0.000001
vn -0.000000 -1.000000 -0.000001
vn -0.000000 -1.000000 -0.000001
vn -0.000000 -1.000000 -0.000001
vn -0.968730 -0.000001 0.248118
vn -0.968730 -0.000001 0.248118
vn -0.968730 -0.000001 0.248118
vn -0.968730 -0.000001 0.248118
vn -0.000000 1.000000 0.000001
vn -0.000000 1.000000 0.000001
vn -0.000000 1.000000 0.000001
vn -0.000000 1.000000 0.000001
s off
g polySurface20
usemtl initialShadingGroup
f 1/1/1 9/2/2 10/3/3 2/4/4
f 2/4/5 10/3/6 11/5/7 3/6/8
f 3/6/9 11/5/10 12/7/11 4/8/12
f 4/8/13 12/7/14 13/9/15 5/10/16
f 5/10/17 13/9/18 14/11/19 6/12/20
f 6/12/21 14/11/22 15/13/23 7/14/24
f 7/14/25 15/13/26 16/15/27 8/16/28
f 8/16/29 16/15/30 9/17/31 1/18/32
s 1
f 27/19/33 28/20/34 26/21/35
f 29/22/36 28/20/34 27/19/33
f 30/23/37 28/20/34 29/22/36
f 31/24/38 28/20/34 30/23/37
f 32/25/39 28/20/34 31/24/38
f 33/26/40 28/20/34 32/25/39
f 34/27/41 28/20/34 33/26/40
f 26/21/35 28/20/34 34/27/41
s 2
f 9/28/42 17/29/43 10/30/44
f 10/30/44 17/29/43 11/31/45
f 11/31/45 17/29/43 12/32/46
f 12/32/46 17/29/43 13/33/47
f 13/33/47 17/29/43 14/34/48
f 14/34/48 17/29/43 15/35/49
f 15/35/49 17/29/43 16/36/50
f 16/36/50 17/29/43 9/28/42
s off
f 2/37/51 19/38/52 18/39/53 1/40/54
f 3/41/55 20/42/56 19/38/57 2/37/58
f 4/43/59 21/44/60 20/42/61 3/41/62
f 5/45/63 22/46/64 21/44/65 4/43/66
f 6/47/67 23/48/68 22/46/69 5/45/70
f 7/49/71 24/50/72 23/48/73 6/47/74
f 8/51/75 25/52/76 24/50/77 7/49/78
f 1/40/79 18/39/80 25/52/81 8/51/82
f 19/38/83 27/19/84 26/21/85 18/39/86
f 20/42/87 29/22/88 27/19/89 19/38/90
f 21/44/91 30/23/92 29/22/93 20/42/94
f 22/46/95 31/24/96 30/23/97 21/44/98
f 23/48/99 32/25/100 31/24/101 22/46/102
f 24/50/103 33/26/104 32/25/105 23/48/106
f 25/52/107 34/27/108 33/26/109 24/50/110
f 18/39/111 26/21/112 34/27/113 25/52/114
f 35/53/115 43/54/116 44/55/117 36/56/118
f 36/56/119 44/55/120 45/57/121 37/58/122
f 37/58/123 45/57/124 46/59/125 38/60/126
f 38/60/127 46/59/128 47/61/129 39/62/130
f 39/62/131 47/61/132 48/63/133 40/64/134
f 40/64/135 48/63/136 49/65/137 41/66/138
f 41/66/139 49/65/140 50/67/141 42/68/142
f 42/68/143 50/67/144 43/69/145 35/70/146
s 3
f 61/71/147 62/72/148 60/73/149
f 63/74/150 62/72/148 61/71/147
f 64/75/151 62/72/148 63/74/150
f 65/76/152 62/72/148 64/75/151
f 66/77/153 62/72/148 65/76/152
f 67/78/154 62/72/148 66/77/153
f 68/79/155 62/72/148 67/78/154
f 60/73/149 62/72/148 68/79/155
s 4
f 43/80/156 51/81/157 44/82/158
f 44/82/158 51/81/157 45/83/159
f 45/83/159 51/81/157 46/84/160
f 46/84/160 51/81/157 47/85/161
f 47/85/161 51/81/157 48/86/162
f 48/86/162 51/81/157 49/87/163
f 49/87/163 51/81/157 50/88/164
f 50/88/164 51/81/157 43/80/156
s off
f 36/89/165 53/90/166 52/91/167 35/92/168
f 37/93/169 54/94/170 53/90/171 36/89/172
f 38/95/173 55/96/174 54/94/175 37/93/176
f 39/97/177 56/98/178 55/96/179 38/95/180
f 40/99/181 57/100/182 56/98/183 39/97/184
f 41/101/185 58/102/186 57/100/187 40/99/188
f 42/103/189 59/104/190 58/102/191 41/101/192
f 35/92/193 52/91/194 59/104/195 42/103/196
f 53/90/197 61/71/198 60/73/199 52/91/200
f 54/94/201 63/74/202 61/71/203 53/90/204
f 55/96/205 64/75/206 63/74/207 54/94/208
f 56/98/209 65/76/210 64/75/211 55/96/212
f 57/100/213 66/77/214 65/76/215 56/98/216
f 58/102/217 67/78/218 66/77/219 57/100/220
f 59/104/221 68/79/222 67/78/223 58/102/224
f 52/91/225 60/73/226 68/79/227 59/104/228
f 93/105/229 96/106/230 95/107/231 94/108/232
f 94/108/233 98/109/234 97/110/235 93/105/236
f 76/111/237 78/112/238 77/113/239 75/114/240
f 78/112/241 80/115/242 79/116/243 77/113/244
f 80/115/245 82/117/246 81/118/247 79/116/248
f 82/117/249 84/119/250 83/120/251 81/118/252
f 84/119/253 86/121/254 85/122/255 83/120/256
f 86/121/257 73/123/258 74/124/259 85/122/260
f 70/125/261 72/126/262 73/123/263
f 69/127/264 74/124/265 71/128/266
f 69/127/267 71/128/268 75/114/269
f 70/125/270 76/111/271 72/126/272
f 69/127/273 75/114/274 77/113/275
f 70/125/276 78/112/277 76/111/278
f 69/127/279 77/113/280 79/116/281
f 70/125/282 80/115/283 78/112/284
f 69/127/285 79/116/286 81/118/287
f 70/125/288 82/117/289 80/115/290
f 69/127/291 81/118/292 83/120/293
f 70/125/294 84/119/295 82/117/296
f 69/127/297 83/120/298 85/122/299
f 70/125/300 86/121/301 84/119/302
f 69/127/303 85/122/304 74/124/305
f 70/125/306 73/123/307 86/121/308
f 72/126/309 88/129/310 89/130/311 73/123/312
f 73/123/313 89/130/314 90/131/315 74/124/316
f 74/124/317 90/131/318 87/132/319 71/128/320
f 71/128/321 87/132/322 91/133/323 75/114/324
f 75/114/325 91/133/326 92/134/327 76/111/328
f 76/111/329 92/134/330 88/129/331 72/126/332
f 88/129/333 94/108/334 95/107/335 89/130/336
f 89/130/337 95/107/338 96/106/339 90/131/340
f 90/131/341 96/106/342 93/105/343 87/132/344
f 87/132/345 93/105/346 97/110/347 91/133/348
f 91/133/349 97/110/350 98/109/351 92/134/352
f 92/134/353 98/109/354 94/108/355 88/129/356
