# This file uses centimeters as units for non-parametric coordinates.

mtllib r1.mtl
g default
v 0.000000 -5.644755 -5.644758
v -3.317905 -5.644755 -4.566705
v -5.368483 -5.644755 -1.744326
v -5.368483 -5.644755 1.744326
v -3.317905 -5.644755 4.566704
v 0.000000 5.644755 -5.644758
v -3.317905 5.644755 -4.566705
v -5.368483 5.644755 -1.744326
v -5.368483 5.644755 1.744326
v -3.317905 5.644755 4.566704
v -0.251499 5.644755 -6.418792
v -3.772871 5.644755 -5.192911
v -0.251499 -5.644755 -6.418792
v -3.772871 -5.644755 -5.192911
v -6.104634 5.644755 -1.983515
v -6.104634 -5.644755 -1.983515
v -6.104634 5.644755 1.983515
v -6.104634 -5.644755 1.983515
v -3.976337 5.644755 5.045083
v -3.976337 -5.644755 5.045083
vt 0.425000 0.312500
vt 0.450000 0.312500
vt 0.475000 0.312500
vt 0.500000 0.312500
vt 0.525000 0.312500
vt 0.425000 0.688440
vt 0.450000 0.688440
vt 0.475000 0.688440
vt 0.500000 0.688440
vt 0.525000 0.688440
vt 0.450000 0.688440
vt 0.425000 0.688440
vt 0.425000 0.312500
vt 0.450000 0.312500
vt 0.475000 0.688440
vt 0.475000 0.312500
vt 0.500000 0.688440
vt 0.500000 0.312500
vt 0.525000 0.688440
vt 0.525000 0.312500
vt 0.450000 0.688440
vt 0.425000 0.688440
vt 0.425000 0.312500
vt 0.450000 0.312500
vt 0.475000 0.688440
vt 0.475000 0.312500
vt 0.500000 0.688440
vt 0.500000 0.312500
vt 0.525000 0.688440
vt 0.525000 0.312500
vn -0.328773 0.000000 -0.944409
vn -0.328773 0.000000 -0.944409
vn -0.328773 0.000000 -0.944409
vn -0.328773 0.000000 -0.944409
vn -0.809017 0.000000 -0.587785
vn -0.809017 0.000000 -0.587785
vn -0.809017 0.000000 -0.587785
vn -0.809017 0.000000 -0.587785
vn -1.000000 0.000000 0.000000
vn -1.000000 0.000000 0.000000
vn -1.000000 0.000000 0.000000
vn -1.000000 0.000000 0.000000
vn -0.821092 0.000000 0.570795
vn -0.821092 0.000000 0.570795
vn -0.821092 0.000000 0.570795
vn -0.821092 0.000000 0.570795
vn 0.309017 0.000000 0.951056
vn 0.309017 0.000000 0.951056
vn 0.309017 0.000000 0.951056
vn 0.309017 0.000000 0.951056
vn 0.809017 0.000000 0.587785
vn 0.809017 0.000000 0.587785
vn 0.809017 0.000000 0.587785
vn 0.809017 0.000000 0.587785
vn 1.000000 0.000000 0.000000
vn 1.000000 0.000000 0.000000
vn 1.000000 0.000000 0.000000
vn 1.000000 0.000000 0.000000
vn 0.809017 0.000000 -0.587785
vn 0.809017 0.000000 -0.587785
vn 0.809017 0.000000 -0.587785
vn 0.809017 0.000000 -0.587785
vn 0.000000 1.000000 0.000000
vn 0.000000 1.000000 0.000000
vn 0.000000 1.000000 0.000000
vn 0.000000 1.000000 0.000000
vn 0.951056 0.000000 -0.309017
vn 0.951056 0.000000 -0.309017
vn 0.951056 0.000000 -0.309017
vn 0.951056 0.000000 -0.309017
vn 0.000000 -1.000000 -0.000000
vn 0.000000 -1.000000 -0.000000
vn 0.000000 -1.000000 -0.000000
vn 0.000000 -1.000000 -0.000000
vn 0.000000 1.000000 0.000000
vn 0.000000 1.000000 0.000000
vn 0.000000 1.000000 0.000000
vn 0.000000 1.000000 0.000000
vn 0.000000 -1.000000 0.000000
vn 0.000000 -1.000000 0.000000
vn 0.000000 -1.000000 0.000000
vn 0.000000 -1.000000 0.000000
vn 0.000000 1.000000 0.000000
vn 0.000000 1.000000 0.000000
vn 0.000000 1.000000 0.000000
vn 0.000000 1.000000 0.000000
vn 0.000000 -1.000000 0.000000
vn 0.000000 -1.000000 0.000000
vn 0.000000 -1.000000 0.000000
vn 0.000000 -1.000000 0.000000
vn 0.000000 1.000000 0.000000
vn 0.000000 1.000000 0.000000
vn 0.000000 1.000000 0.000000
vn 0.000000 1.000000 0.000000
vn 0.000000 -1.000000 0.000000
vn 0.000000 -1.000000 0.000000
vn 0.000000 -1.000000 0.000000
vn 0.000000 -1.000000 0.000000
vn 0.587786 0.000000 0.809017
vn 0.587786 0.000000 0.809017
vn 0.587786 0.000000 0.809017
vn 0.587786 0.000000 0.809017
s off
g pCylinder8 r1
usemtl initialShadingGroup
f 12/21/1 11/22/2 13/23/3 14/24/4
f 15/25/5 12/21/6 14/24/7 16/26/8
f 17/27/9 15/25/10 16/26/11 18/28/12
f 19/29/13 17/27/14 18/28/15 20/30/16
f 7/11/17 2/14/18 1/13/19 6/12/20
f 8/15/21 3/16/22 2/14/23 7/11/24
f 9/17/25 4/18/26 3/16/27 8/15/28
f 10/19/29 5/20/30 4/18/31 9/17/32
f 7/7/33 6/6/34 11/22/35 12/21/36
f 6/6/37 1/1/38 13/23/39 11/22/40
f 1/1/41 2/2/42 14/24/43 13/23/44
f 8/8/45 7/7/46 12/21/47 15/25/48
f 2/2/49 3/3/50 16/26/51 14/24/52
f 9/9/53 8/8/54 15/25/55 17/27/56
f 3/3/57 4/4/58 18/28/59 16/26/60
f 10/10/61 9/9/62 17/27/63 19/29/64
f 4/4/65 5/5/66 20/30/67 18/28/68
f 5/5/69 10/10/70 19/29/71 20/30/72
