# This file uses centimeters as units for non-parametric coordinates.

mtllib r4.mtl
g default
v -2.914287 -3.697471 0.164463
v 2.914287 -3.697471 0.164463
v -2.914287 3.697471 0.164463
v 2.914287 3.697471 0.164463
v -2.914287 3.697471 -0.164463
v 2.914287 3.697471 -0.164463
v -2.914287 -3.697471 -0.164463
v 2.914287 -3.697471 -0.164463
v 0.895434 9.250524 0.156732
v 0.895434 9.250524 -0.156732
v -2.672865 -8.505838 -0.164463
v -2.672865 -8.505838 0.164463
v -1.165715 -3.697471 0.164463
v -1.069146 -6.337890 0.164463
v -1.069146 -6.337890 -0.164463
v -1.165715 -3.697471 -0.164463
v -1.165715 3.697471 -0.164463
v -1.165715 3.697471 0.164463
v 1.282287 -3.697471 0.164463
v 1.282287 3.697471 0.164463
v 0.393991 9.250524 0.156732
v 0.393991 9.250524 -0.156732
v 1.282287 3.697471 -0.164463
v 1.282287 -3.697471 -0.164463
v 0.474527 -5.797161 -0.164463
v 0.474527 -5.797161 0.164463
v -1.351648 11.225601 0.156732
v -1.351648 11.225601 -0.156732
v -0.850205 11.225601 0.156732
v -0.850205 11.225601 -0.156732
vt 0.375000 0.000000
vt 0.625000 0.000000
vt 0.375000 0.250000
vt 0.625000 0.250000
vt 0.375000 0.500000
vt 0.625000 0.500000
vt 0.375000 0.750000
vt 0.625000 0.750000
vt 0.375000 1.000000
vt 0.875000 0.000000
vt 0.875000 0.250000
vt 0.125000 0.000000
vt 0.125000 0.250000
vt 0.625000 0.250000
vt 0.625000 0.500000
vt 0.375000 0.750000
vt 0.375000 1.000000
vt 0.450000 0.000000
vt 0.450000 1.000000
vt 0.450000 1.000000
vt 0.450000 0.750000
vt 0.450000 0.750000
vt 0.450000 0.500000
vt 0.450000 0.250000
vt 0.555000 0.000000
vt 0.555000 1.000000
vt 0.555000 0.250000
vt 0.555000 0.250000
vt 0.555000 0.500000
vt 0.555000 0.500000
vt 0.555000 0.750000
vt 0.555000 0.750000
vt 0.555000 1.000000
vt 0.555000 0.500000
vt 0.555000 0.250000
vt 0.625000 0.250000
vt 0.625000 0.500000
vn 0.000000 0.000000 1.000000
vn 0.000000 0.000000 1.000000
vn 0.000000 0.000000 1.000000
vn 0.000000 0.000252 1.000000
vn 0.000000 0.000000 -1.000000
vn 0.000000 0.000000 -1.000000
vn 0.000000 0.000252 -1.000000
vn 0.000000 0.000000 -1.000000
vn 0.652305 -0.757957 0.000000
vn 0.652305 -0.757957 0.000000
vn 0.330592 -0.943774 0.000000
vn 0.330592 -0.943774 0.000000
vn 1.000000 0.000000 0.000000
vn 1.000000 0.000000 0.000000
vn 0.988617 0.150456 0.000000
vn 0.988617 0.150456 0.000000
vn -0.999804 -0.019780 0.000000
vn -0.999804 -0.019780 0.000000
vn -1.000000 0.000000 0.000000
vn -1.000000 0.000000 0.000000
vn 0.939817 0.341678 0.000000
vn 0.939817 0.341678 0.000000
vn 0.000000 0.000000 -1.000000
vn 0.000000 0.000000 -1.000000
vn 0.000000 0.000000 1.000000
vn 0.000000 0.000000 1.000000
vn -0.998742 -0.050146 0.000000
vn -0.998742 -0.050146 0.000000
vn 0.000000 0.000000 1.000000
vn 0.000000 0.000000 1.000000
vn 0.803942 -0.594708 0.000000
vn 0.803942 -0.594708 0.000000
vn 0.000000 0.000000 -1.000000
vn 0.000000 0.000000 -1.000000
vn 0.000000 0.000000 -1.000000
vn 0.000000 0.000000 1.000000
vn 0.000000 0.000000 1.000000
vn 0.000000 0.000365 1.000000
vn 0.000000 0.001392 0.999999
vn 0.000000 0.001392 0.999999
vn 0.000000 1.000000 0.000000
vn 0.000000 1.000000 0.000000
vn 0.000000 1.000000 0.000000
vn 0.000000 1.000000 0.000000
vn 0.000000 0.000365 -1.000000
vn 0.000000 0.001392 -0.999999
vn 0.000000 0.001392 -0.999999
vn 0.000000 0.000000 -1.000000
vn 0.652306 -0.757955 0.000000
vn 0.652306 -0.757955 0.000000
vn 0.933318 -0.359051 0.000000
vn 0.933318 -0.359051 0.000000
vn 0.000000 -1.000000 0.000000
vn 0.000000 -1.000000 0.000000
vn -0.957701 0.287764 0.000000
vn -0.957701 0.287764 0.000000
vn -0.987446 -0.157957 0.000000
vn -0.987446 -0.157957 0.000000
vn 0.000000 1.000000 0.000000
vn 0.000000 1.000000 0.000000
vn 0.000000 1.000000 0.000000
vn 0.000000 1.000000 0.000000
vn -0.749287 -0.662245 0.000000
vn -0.749287 -0.662245 0.000000
vn -0.749287 -0.662245 0.000000
vn -0.749287 -0.662245 0.000000
vn 0.000000 0.000000 1.000000
vn 0.000000 0.000000 1.000000
vn 0.000000 0.000000 1.000000
vn 0.000000 0.000000 1.000000
vn 0.749287 0.662245 0.000000
vn 0.749287 0.662245 0.000000
vn 0.749287 0.662245 0.000000
vn 0.749287 0.662245 0.000000
vn 0.000000 0.000000 -1.000000
vn 0.000000 0.000000 -1.000000
vn 0.000000 0.000000 -1.000000
vn 0.000000 0.000000 -1.000000
s 1
g pCube5 r4
usemtl initialShadingGroup
f 18/24/1 13/18/2 19/25/3 20/27/4
s 2
f 16/22/5 17/23/6 23/30/7 24/31/8
s 3
f 14/20/9 15/21/10 25/32/11 26/33/12
s 4
f 2/2/13 8/10/14 6/11/15 4/4/16
s 5
f 7/12/17 1/1/18 3/3/19 5/13/20
s 4
f 4/4/16 6/6/15 10/15/21 9/14/22
s 2
f 15/21/23 16/22/5 24/31/8 25/32/24
s 1
f 26/33/25 19/26/3 13/19/2 14/20/26
s 5
f 1/9/18 7/7/17 11/16/27 12/17/28
s 1
f 14/20/26 13/19/2 1/9/29 12/17/30
s 3
f 11/16/31 15/21/10 14/20/9 12/17/32
s 2
f 7/7/33 16/22/5 15/21/23 11/16/34
f 5/5/35 17/23/6 16/22/5 7/7/33
s 1
f 1/1/29 13/18/2 18/24/1 3/3/36
f 20/27/4 19/25/3 2/2/37 4/4/38
f 21/28/39 20/27/4 4/4/38 9/14/40
s off
f 28/34/41 27/35/42 29/36/43 30/37/44
s 2
f 6/6/45 23/30/7 22/29/46 10/15/47
f 24/31/8 23/30/7 6/6/45 8/8/48
s 6
f 24/31/49 19/26/50 26/33/51 25/32/52
f 2/2/53 19/26/50 24/31/49 8/10/54
s 7
f 23/30/55 20/27/56 21/28/57 22/29/58
f 18/24/59 17/23/60 5/13/61 3/3/62
f 18/24/59 20/27/56 23/30/55 17/23/60
s off
f 22/29/63 21/28/64 27/35/65 28/34/66
f 21/28/67 9/14/68 29/36/69 27/35/70
f 9/14/71 10/15/72 30/37/73 29/36/74
f 10/15/75 22/29/76 28/34/77 30/37/78
