# This file uses centimeters as units for non-parametric coordinates.

mtllib scafo 3.mtl
g default
v -0.264198 -0.096062 0.073986
v -0.187857 -0.083074 -0.028655
v -0.199599 -0.082841 -0.041748
v 0.199599 -0.082841 -0.041748
v 0.187138 -0.082355 -0.028655
v 0.264198 -0.096062 0.073986
v -0.199593 -0.021665 -0.041788
v -0.187138 -0.022717 -0.028655
v -0.186198 -0.008410 -0.041910
v 0.186198 -0.008410 -0.041910
v 0.188167 -0.021688 -0.028655
v 0.199593 -0.021665 -0.041788
v -0.040156 -0.016931 -1.005876
v -0.026777 -0.003676 -1.005876
v 0.040156 -0.016931 -1.005876
v 0.026777 -0.003676 -1.005876
v -0.040156 -0.034638 -1.005876
v -0.026818 -0.047864 -1.005876
v 0.026818 -0.047864 -1.005876
v 0.040156 -0.034638 -1.005876
v 0.000000 0.004003 -1.028914
v 0.000000 0.004003 0.158795
v 0.000514 -0.022202 0.172050
v -0.000359 -0.082715 0.172050
v 0.000000 -0.096062 0.190955
v 0.000000 -0.047864 -1.028914
v 0.000000 -0.069311 -0.910625
v 0.000000 -0.105158 -0.859534
v 0.023710 -0.105069 -0.861475
v 0.037006 -0.068696 -0.917352
v 0.279384 -0.192072 0.073986
v 0.291050 -0.118693 0.073987
v 0.000000 -0.213812 0.209274
v 0.000000 -0.121919 0.218922
v -0.022894 -0.105122 -0.860316
v -0.036932 -0.068545 -0.919004
v -0.291050 -0.118693 0.073987
v -0.279384 -0.192072 0.073986
v 0.000001 -0.068731 -0.898348
v 0.000001 -0.091760 -0.865527
v -0.015093 -0.091722 -0.866051
v -0.024112 -0.068224 -0.903754
v 0.024161 -0.068350 -0.902648
v 0.015619 -0.091717 -0.866751
v 0.045938 -0.033011 -0.970911
v 0.194058 -0.070902 -0.075252
v 0.045938 -0.027484 -0.970911
v 0.194053 -0.030582 -0.075288
v -0.194058 -0.070902 -0.075252
v -0.045938 -0.033011 -0.970911
v -0.194053 -0.030582 -0.075288
v -0.045938 -0.027484 -0.970911
v 0.028057 -0.039154 -0.967954
v 0.176178 -0.070902 -0.072295
v 0.028057 -0.027483 -0.967954
v 0.176173 -0.030582 -0.072331
v -0.176178 -0.070902 -0.072295
v -0.028057 -0.039154 -0.967954
v -0.176173 -0.030582 -0.072331
v -0.028057 -0.027483 -0.967954
v 0.000000 -0.191762 0.073986
v -0.010837 0.004003 -0.129021
v -0.119984 -0.000691 -0.229403
v -0.006892 0.004003 -0.924982
v -0.029549 -0.002151 -0.924960
v 0.006871 0.004003 -0.924982
v 0.010822 0.004003 -0.129021
v 0.120023 -0.000696 -0.229403
v 0.029542 -0.002150 -0.924960
v 0.026206 0.001166 -0.129021
v 0.120023 -0.000696 -0.229403
v -0.026222 0.001163 -0.129021
v -0.119984 -0.000691 -0.229403
v 0.042756 -0.009109 -0.278966
v 0.097051 -0.010971 -0.341507
v -0.042762 -0.009111 -0.278966
v -0.097012 -0.010966 -0.341507
vt 0.147294 0.232687
vt 0.000000 0.182447
vt 0.027524 0.172452
vt 0.067849 0.177014
vt 0.118165 0.194124
vt 0.153935 0.215659
vt 0.519470 0.481766
vt 0.522699 0.497276
vt 0.369361 0.608809
vt 0.345924 0.561839
vt 0.621580 0.403367
vt 0.606915 0.395615
vt 0.595381 0.270649
vt 0.614917 0.267692
vt 0.531868 0.494050
vt 0.666317 0.566488
vt 0.662625 0.573992
vt 0.607770 0.259259
vt 0.510116 0.090622
vt 0.556143 0.068839
vt 0.761553 0.279058
vt 0.762243 0.287224
vt 0.695478 0.595098
vt 0.434524 0.722017
vt 0.417245 0.685095
vt 0.787360 0.450567
vt 0.735485 0.431152
vt 0.800851 0.281952
vt 0.639570 0.038454
vt 0.675719 0.019958
vt 0.000000 0.114452
vt 0.018592 0.000000
vt 0.046724 0.011080
vt 0.011746 0.114448
vt 0.000000 0.153084
vt 0.072514 0.000000
vt 0.099171 0.000000
vt 0.092094 0.153078
vt 0.172017 0.153084
vt 0.099504 0.000000
vt 0.191598 0.000006
vt 0.198674 0.153084
vt 0.194032 0.011081
vt 0.222142 0.000000
vt 0.240728 0.114460
vt 0.228988 0.114456
vt 0.050389 0.228208
vt 0.015682 0.207178
vt 0.142142 0.250225
vt 0.100673 0.245411
vt 0.216434 0.256284
vt 0.282084 0.275203
vt 0.275107 0.294201
vt 0.209872 0.265976
vt 0.217106 0.244921
vt 0.289401 0.254823
vt 0.337395 0.235921
vt 0.456147 0.132260
vt 0.554571 0.258478
vt 0.452598 0.275337
vt 0.566659 0.380555
vt 0.363342 0.316470
vt 0.480015 0.467486
vt 0.411650 0.401101
vt 0.328998 0.494458
vt 0.303076 0.332597
vt 0.314589 0.302556
vt 0.311568 0.303991
vt 0.216690 0.238073
vt 0.212189 0.254935
vt 0.205320 0.271402
vt 0.567036 0.071979
vt 0.631027 0.255552
vt 0.608948 0.058739
vt 0.735596 0.268452
vt 0.539953 0.513794
vt 0.379890 0.613432
vt 0.634807 0.566548
vt 0.405342 0.650052
vt 0.584887 0.077036
vt 0.636146 0.249113
vt 0.600963 0.061325
vt 0.725958 0.260399
vt 0.541729 0.521358
vt 0.397244 0.620761
vt 0.621767 0.567142
vt 0.400481 0.643026
vt 0.834844 0.476419
vt 0.786756 0.563982
vt 1.000000 0.523295
vt 0.980660 0.521565
vt 0.441040 0.752344
vt 0.457287 0.720222
vt 0.462177 0.741683
vt 0.643729 0.652233
vt 0.840655 0.459229
vt 0.983632 0.512825
vt 0.855166 0.360939
vt 0.692408 0.035481
vt 0.795844 0.204640
vt 0.699284 0.000000
vt 0.709486 0.021389
vt 0.847350 0.445658
vt 0.855170 0.360935
vt 0.795849 0.204637
vt 0.831926 0.491322
vt 0.786758 0.563984
vt 0.643765 0.652235
vt 0.888138 0.424562
vt 0.898638 0.382568
vt 0.802400 0.156805
vt 0.851451 0.533015
vt 0.834462 0.572891
vt 0.619424 0.693628
vn 0.545413 0.000234 -0.838167
vn 0.545413 0.000234 -0.838167
vn 0.545413 0.000234 -0.838167
vn 0.545413 0.000234 -0.838167
vn 0.545413 0.000234 -0.838167
vn 0.545413 0.000234 -0.838167
vn -0.587334 0.805766 -0.076024
vn -0.587334 0.805766 -0.076024
vn -0.587334 0.805766 -0.076024
vn -0.587334 0.805766 -0.076024
vn 0.105709 0.982801 0.151419
vn 0.105709 0.982801 0.151419
vn 0.105709 0.982801 0.151419
vn 0.105709 0.982801 0.151419
vn -0.734825 0.004605 0.678241
vn -0.734825 0.004605 0.678241
vn -0.734825 0.004605 0.678241
vn -0.734825 0.004605 0.678241
vn 0.587334 0.805766 -0.076024
vn 0.587334 0.805766 -0.076024
vn 0.587334 0.805766 -0.076024
vn 0.587334 0.805766 -0.076024
vn 0.739214 -0.005984 0.673444
vn 0.739214 -0.005984 0.673444
vn 0.739214 -0.005984 0.673444
vn 0.739214 -0.005984 0.673444
vn -0.699420 0.705849 -0.112203
vn -0.699420 0.705849 -0.112203
vn -0.699420 0.705849 -0.112203
vn -0.699420 0.705849 -0.112203
vn 0.661416 0.446307 0.602776
vn 0.661416 0.446307 0.602776
vn 0.661416 0.446307 0.602776
vn 0.661416 0.446307 0.602776
vn 0.699420 0.705849 -0.112203
vn 0.699420 0.705849 -0.112203
vn 0.699420 0.705849 -0.112203
vn 0.699420 0.705849 -0.112203
vn 0.730565 -0.011468 0.682746
vn 0.730565 -0.011468 0.682746
vn 0.730565 -0.011468 0.682746
vn 0.730565 -0.011468 0.682746
vn 0.110349 0.993857 0.008450
vn 0.110349 0.993857 0.008450
vn 0.110349 0.993857 0.008450
vn 0.110349 0.993857 0.008450
vn 0.986600 -0.000015 -0.163161
vn 0.986600 -0.000015 -0.163161
vn 0.986600 -0.000015 -0.163161
vn 0.986600 -0.000015 -0.163161
vn -0.986600 -0.000014 -0.163161
vn -0.986600 -0.000014 -0.163161
vn -0.986600 -0.000014 -0.163161
vn -0.986600 -0.000014 -0.163161
vn -0.065931 0.994861 0.076847
vn -0.065931 0.994861 0.076847
vn -0.065931 0.994861 0.076847
vn 0.099562 0.993345 0.057902
vn 0.099562 0.993345 0.057902
vn 0.099562 0.993345 0.057902
vn -0.567818 0.579202 0.584900
vn -0.567818 0.579202 0.584900
vn -0.567818 0.579202 0.584900
vn 0.597859 0.608976 0.521261
vn 0.597859 0.608976 0.521261
vn 0.597859 0.608976 0.521261
vn -0.110351 0.993857 0.008452
vn -0.110351 0.993857 0.008452
vn -0.110351 0.993857 0.008452
vn -0.110351 0.993857 0.008452
vn -0.674199 0.409347 0.614728
vn -0.674199 0.409347 0.614728
vn -0.674199 0.409347 0.614728
vn -0.674199 0.409347 0.614728
vn -0.730578 0.009626 0.682762
vn -0.730578 0.009626 0.682762
vn -0.730578 0.009626 0.682762
vn -0.730578 0.009626 0.682762
vn -0.104640 0.983485 0.147673
vn -0.104640 0.983485 0.147673
vn -0.104640 0.983485 0.147673
vn -0.104640 0.983485 0.147673
vn -0.545414 0.000234 -0.838167
vn -0.545414 0.000234 -0.838167
vn -0.545414 0.000234 -0.838167
vn -0.545414 0.000234 -0.838167
vn -0.545414 0.000234 -0.838167
vn -0.545413 0.000234 -0.838167
vn 0.072543 -0.828224 -0.555682
vn 0.072543 -0.828224 -0.555682
vn 0.072543 -0.828224 -0.555682
vn 0.072543 -0.828224 -0.555682
vn -0.069577 -0.822749 -0.564131
vn -0.069577 -0.822749 -0.564131
vn -0.069577 -0.822749 -0.564131
vn -0.069577 -0.822749 -0.564131
vn 0.903140 -0.339331 -0.263045
vn 0.903140 -0.339331 -0.263045
vn 0.903140 -0.339331 -0.263045
vn 0.903140 -0.339331 -0.263045
vn 0.442317 -0.083353 0.892977
vn 0.442317 -0.083353 0.892977
vn 0.442317 -0.083353 0.892977
vn 0.442317 -0.083353 0.892977
vn -0.442317 -0.083353 0.892977
vn -0.442317 -0.083353 0.892977
vn -0.442317 -0.083353 0.892977
vn -0.442317 -0.083353 0.892977
vn -0.898844 -0.350533 -0.263071
vn -0.898844 -0.350533 -0.263071
vn -0.898844 -0.350533 -0.263071
vn -0.898844 -0.350533 -0.263071
vn -0.001318 -0.995729 -0.092311
vn -0.001318 -0.995729 -0.092311
vn -0.001318 -0.995729 -0.092311
vn -0.001318 -0.995729 -0.092311
vn 0.001142 -0.995725 -0.092363
vn 0.001142 -0.995725 -0.092363
vn 0.001142 -0.995725 -0.092363
vn 0.001142 -0.995725 -0.092363
vn 0.061253 -0.977300 -0.202812
vn 0.061253 -0.977300 -0.202812
vn 0.061253 -0.977300 -0.202812
vn 0.061253 -0.977300 -0.202812
vn 0.907495 0.370605 -0.197747
vn 0.907495 0.370605 -0.197747
vn 0.907495 0.370605 -0.197747
vn 0.907495 0.370605 -0.197747
vn 0.337290 0.603508 0.722505
vn 0.337290 0.603508 0.722505
vn 0.337290 0.603508 0.722505
vn 0.337290 0.603508 0.722505
vn -0.904753 0.377850 -0.196600
vn -0.904753 0.377850 -0.196601
vn -0.904753 0.377850 -0.196601
vn -0.904753 0.377850 -0.196601
vn -0.058562 -0.977307 -0.203572
vn -0.058562 -0.977307 -0.203572
vn -0.058562 -0.977307 -0.203572
vn -0.058562 -0.977307 -0.203572
vn -0.337290 0.603508 0.722505
vn -0.337290 0.603508 0.722505
vn -0.337290 0.603508 0.722505
vn -0.337290 0.603508 0.722505
vn 0.030582 -0.408199 -0.912381
vn 0.030582 -0.408199 -0.912381
vn 0.030582 -0.408199 -0.912381
vn 0.030582 -0.408199 -0.912381
vn 0.626749 -0.585124 -0.514603
vn 0.626749 -0.585124 -0.514603
vn 0.626749 -0.585124 -0.514603
vn 0.626749 -0.585124 -0.514603
vn -0.031526 -0.998380 0.047357
vn -0.031526 -0.998380 0.047357
vn -0.031526 -0.998380 0.047357
vn -0.031526 -0.998380 0.047357
vn 0.024551 -0.998642 0.045952
vn 0.024551 -0.998642 0.045952
vn 0.024551 -0.998642 0.045952
vn 0.024551 -0.998642 0.045952
vn -0.618616 -0.583006 -0.526705
vn -0.618616 -0.583006 -0.526705
vn -0.618616 -0.583006 -0.526705
vn -0.618616 -0.583006 -0.526705
vn -0.071955 -0.405610 -0.911210
vn -0.071955 -0.405610 -0.911210
vn -0.071955 -0.405610 -0.911210
vn -0.071955 -0.405610 -0.911210
vn 0.986600 -0.000009 -0.163160
vn 0.986600 -0.000009 -0.163160
vn 0.986600 -0.000009 -0.163160
vn 0.986600 -0.000009 -0.163160
vn 0.986600 0.000003 -0.163157
vn 0.986600 0.000003 -0.163157
vn 0.986600 0.000003 -0.163157
vn 0.986600 0.000003 -0.163157
vn 0.986600 -0.000015 -0.163161
vn 0.986600 -0.000015 -0.163161
vn 0.986600 -0.000015 -0.163161
vn 0.986600 -0.000015 -0.163161
vn 0.986600 -0.000019 -0.163160
vn 0.986600 -0.000019 -0.163160
vn 0.986600 -0.000019 -0.163160
vn 0.986600 -0.000019 -0.163160
vn -0.986600 -0.000009 -0.163160
vn -0.986600 -0.000009 -0.163160
vn -0.986600 -0.000009 -0.163160
vn -0.986600 -0.000009 -0.163160
vn -0.986600 -0.000019 -0.163160
vn -0.986600 -0.000019 -0.163160
vn -0.986600 -0.000019 -0.163160
vn -0.986600 -0.000019 -0.163160
vn -0.986600 -0.000014 -0.163161
vn -0.986600 -0.000014 -0.163161
vn -0.986600 -0.000014 -0.163161
vn -0.986600 -0.000014 -0.163161
vn -0.986600 0.000003 -0.163157
vn -0.986600 0.000003 -0.163157
vn -0.986600 0.000003 -0.163157
vn -0.986600 0.000003 -0.163157
vn -0.158576 0.985236 0.064526
vn -0.158576 0.985236 0.064526
vn -0.158576 0.985236 0.064526
vn -0.158576 0.985236 0.064526
vn 0.163165 -0.000040 0.986599
vn 0.163165 -0.000040 0.986599
vn 0.163165 -0.000040 0.986599
vn 0.163165 -0.000040 0.986599
vn -0.000571 -0.999994 -0.003365
vn -0.000571 -0.999994 -0.003365
vn -0.000571 -0.999994 -0.003365
vn -0.000571 -0.999994 -0.003365
vn -0.163162 -0.000902 -0.986599
vn -0.163162 -0.000902 -0.986599
vn -0.163162 -0.000902 -0.986599
vn -0.163162 -0.000902 -0.986599
vn 0.158576 0.985236 0.064526
vn 0.158576 0.985236 0.064526
vn 0.158576 0.985236 0.064526
vn 0.158576 0.985236 0.064526
vn 0.163161 -0.000902 -0.986599
vn 0.163161 -0.000902 -0.986599
vn 0.163161 -0.000902 -0.986599
vn 0.163161 -0.000902 -0.986599
vn 0.000571 -0.999994 -0.003365
vn 0.000571 -0.999994 -0.003365
vn 0.000571 -0.999994 -0.003365
vn 0.000571 -0.999994 -0.003365
vn -0.163164 -0.000040 0.986599
vn -0.163164 -0.000040 0.986599
vn -0.163164 -0.000040 0.986599
vn -0.163164 -0.000040 0.986599
vn -0.001095 -0.986976 -0.160865
vn -0.001095 -0.986976 -0.160865
vn -0.001095 -0.986976 -0.160865
vn 0.001095 -0.986976 -0.160865
vn 0.001095 -0.986976 -0.160865
vn 0.001095 -0.986976 -0.160865
vn -0.066418 0.997756 0.008465
vn -0.066419 0.997756 0.008465
vn -0.066418 0.997756 0.008465
vn -0.066418 0.997756 0.008465
vn 0.000000 1.000000 0.000000
vn 0.000000 1.000000 0.000000
vn 0.000000 1.000000 0.000000
vn 0.000000 1.000000 0.000000
vn -0.279104 0.959997 -0.022513
vn -0.279104 0.959997 -0.022513
vn -0.279104 0.959997 -0.022513
vn -0.279105 0.959997 -0.022513
vn -0.187164 0.981978 -0.026241
vn -0.187164 0.981978 -0.026241
vn -0.187164 0.981978 -0.026241
vn -0.187164 0.981978 -0.026241
vn 0.000000 1.000000 0.000000
vn 0.000000 1.000000 0.000000
vn 0.000000 1.000000 0.000000
vn 0.000000 1.000000 0.000000
vn 0.066416 0.997756 0.008458
vn 0.066416 0.997756 0.008458
vn 0.066416 0.997756 0.008458
vn 0.066416 0.997756 0.008458
vn 0.187200 0.981971 -0.026249
vn 0.187200 0.981971 -0.026249
vn 0.187200 0.981971 -0.026249
vn 0.187200 0.981971 -0.026249
vn 0.279000 0.960028 -0.022468
vn 0.279000 0.960028 -0.022468
vn 0.279000 0.960028 -0.022468
vn 0.279000 0.960028 -0.022468
vn 0.181353 0.983418 -0.000900
vn 0.181353 0.983418 -0.000900
vn 0.181353 0.983418 -0.000900
vn -0.179314 -0.972358 -0.149553
vn 0.000000 0.000000 0.000000
vn 0.000000 0.000000 0.000000
vn -0.179314 -0.972358 -0.149553
vn 0.000000 0.000000 0.000000
vn 0.000000 0.000000 0.000000
vn 0.000000 0.000000 0.000000
vn 0.000000 0.000000 0.000000
vn 0.179437 -0.972322 -0.149641
vn 0.179437 -0.972322 -0.149641
vn 0.000000 0.000000 0.000000
vn -0.181480 0.983394 -0.000899
vn -0.181480 0.983394 -0.000899
vn -0.181480 0.983394 -0.000899
vn 0.000000 0.000000 0.000000
vn 0.000000 0.000000 0.000000
vn 0.000000 0.000000 0.000000
vn 0.471941 0.881591 -0.008322
vn 0.471941 0.881591 -0.008322
vn 0.471941 0.881591 -0.008322
vn -0.059237 0.995301 -0.076598
vn -0.059237 0.995301 -0.076598
vn -0.059237 0.995301 -0.076598
vn -0.059237 0.995301 -0.076598
vn -0.763697 0.638091 0.098012
vn -0.763697 0.638091 0.098012
vn -0.763697 0.638091 0.098012
vn 0.059369 0.995293 -0.076592
vn 0.059369 0.995293 -0.076592
vn 0.059369 0.995293 -0.076592
vn 0.059369 0.995293 -0.076592
vn -0.472144 0.881482 -0.008322
vn -0.472144 0.881482 -0.008322
vn -0.472144 0.881482 -0.008322
vn 0.763404 0.638457 0.097916
vn 0.763404 0.638457 0.097916
vn 0.763404 0.638457 0.097916
s off
g pCube24
usemtl initialShadingGroup
f 26/1/1 21/2/2 16/3/3 15/4/4 20/5/5 19/6/6
f 1/7/7 3/8/8 17/9/9 18/10/10
f 24/11/11 25/12/12 6/13/13 5/14/14
f 3/8/15 2/15/16 8/16/17 7/17/18
f 4/18/19 6/13/20 19/19/21 20/20/22
f 5/14/23 4/18/24 12/21/25 11/22/26
f 7/17/27 9/23/28 14/24/29 13/25/30
f 22/26/31 23/27/32 11/22/33 10/28/34
f 10/28/35 12/21/36 15/29/37 16/30/38
f 23/27/39 24/11/40 5/14/41 11/22/42
f 66/31/43 74/32/44 75/33/45 69/34/46
f 54/35/47 53/36/48 55/37/49 56/38/50
f 58/39/51 57/40/52 59/41/53 60/42/54
f 1/7/55 2/15/56 3/8/57
f 4/18/58 5/14/59 6/13/60
f 7/17/61 8/16/62 9/23/63
f 10/28/64 11/22/65 12/21/66
f 77/43/67 76/44/68 64/45/69 65/46/70
f 9/23/71 8/16/72 23/27/73 22/26/74
f 2/15/75 24/11/76 23/27/77 8/16/78
f 2/15/79 1/7/80 25/12/81 24/11/82
f 13/47/83 14/48/84 21/2/85 26/1/86 18/49/87 17/50/88
f 39/51/89 40/52/90 41/53/91 42/54/92
f 40/52/93 39/51/94 43/55/95 44/56/96
f 29/57/97 30/58/98 32/59/99 31/60/100
f 31/60/101 32/59/102 34/61/103 33/62/104
f 33/62/105 34/61/106 37/63/107 38/64/108
f 36/65/109 35/66/110 38/64/111 37/63/112
f 31/60/113 61/67/114 28/68/115 29/57/116
f 38/64/117 35/66/118 28/68/119 61/67/120
f 26/1/121 19/6/122 30/69/123 27/70/124
f 19/19/125 6/13/126 32/59/127 30/58/128
f 6/13/129 25/12/130 34/61/131 32/59/132
f 1/7/133 18/10/134 36/65/135 37/63/136
f 18/49/137 26/1/138 27/70/139 36/71/140
f 25/12/141 1/7/142 37/63/143 34/61/144
f 28/68/145 35/66/146 41/53/147 40/52/148
f 35/66/149 36/71/150 42/54/151 41/53/152
f 36/71/153 27/70/154 39/51/155 42/54/156
f 27/70/157 30/69/158 43/55/159 39/51/160
f 30/69/161 29/57/162 44/56/163 43/55/164
f 29/57/165 28/68/166 40/52/167 44/56/168
f 4/18/169 20/20/170 45/72/171 46/73/172
f 20/20/173 15/29/174 47/74/175 45/72/176
f 15/29/177 12/21/178 48/75/179 47/74/180
f 12/21/181 4/18/182 46/73/183 48/75/184
f 17/9/185 3/8/186 49/76/187 50/77/188
f 3/8/189 7/17/190 51/78/191 49/76/192
f 7/17/193 13/25/194 52/79/195 51/78/196
f 13/25/197 17/9/198 50/77/199 52/79/200
f 46/73/201 45/72/202 53/80/203 54/81/204
f 45/72/205 47/74/206 55/82/207 53/80/208
f 47/74/209 48/75/210 56/83/211 55/82/212
f 48/75/213 46/73/214 54/81/215 56/83/216
f 50/77/217 49/76/218 57/84/219 58/85/220
f 49/76/221 51/78/222 59/86/223 57/84/224
f 51/78/225 52/79/226 60/87/227 59/86/228
f 52/79/229 50/77/230 58/85/231 60/87/232
f 33/62/233 61/67/234 31/60/235
f 38/64/236 61/67/237 33/62/238
f 9/23/239 22/26/240 62/88/241 63/89/242
f 22/26/243 21/90/244 64/91/245 62/88/246
f 21/92/247 14/24/248 65/93/249 64/94/250
f 14/24/251 9/23/252 63/95/253 65/93/254
f 21/90/255 22/26/256 67/96/257 66/97/258
f 22/26/259 10/28/260 68/98/261 67/96/262
f 10/28/263 16/30/264 69/99/265 68/100/266
f 16/30/267 21/101/268 66/102/269 69/99/270
f 66/97/271 67/96/272 70/103/273
f 67/96/274 68/98/275 71/104/276 70/103/277
f 68/100/278 69/99/279 71/105/280
f 63/89/281 62/88/282 72/106/283 73/107/284
f 62/88/285 64/91/286 72/106/287
f 65/93/288 63/95/289 73/108/290
f 66/97/291 70/103/292 74/109/293
f 70/103/294 71/104/295 75/110/296 74/109/297
f 71/105/298 69/99/299 75/111/300
f 73/107/301 72/106/302 76/112/303 77/113/304
f 72/106/305 64/91/306 76/112/307
f 65/93/308 73/108/309 77/114/310
