# This file uses centimeters as units for non-parametric coordinates.

mtllib finestra 2.mtl
g default
v 0.049200 -0.048291 -0.192941
v 0.018786 -0.026201 -0.192940
v -0.018786 -0.026201 -0.192940
v -0.049200 -0.048291 -0.192941
v -0.060824 -0.084049 -0.192940
v -0.049200 -0.119807 -0.192941
v -0.018786 -0.141897 -0.192940
v 0.018786 -0.141897 -0.192940
v 0.049200 -0.119807 -0.192941
v 0.060824 -0.084049 -0.192940
v 0.000000 -0.084049 -0.202415
v 0.092768 -0.016058 -0.164797
v 0.035383 0.025590 -0.164548
v -0.035383 0.025590 -0.164548
v -0.092768 -0.016058 -0.164797
v -0.114769 -0.084049 -0.164992
v -0.092768 -0.152040 -0.164797
v -0.035383 -0.193688 -0.164548
v 0.035383 -0.193687 -0.164548
v 0.092768 -0.152040 -0.164797
v 0.114769 -0.084049 -0.164992
vt 0.074424 0.785608
vt 0.052767 0.815425
vt 0.001992 0.799154
vt 0.042823 0.742894
vt 0.052767 0.852261
vt 0.001992 0.868532
vt 0.074424 0.882078
vt 0.042823 0.924791
vt 0.109481 0.893474
vt 0.109481 0.946361
vt 0.144538 0.882078
vt 0.176138 0.924791
vt 0.166194 0.852261
vt 0.216969 0.868532
vt 0.166194 0.815425
vt 0.216969 0.799154
vt 0.144538 0.785608
vt 0.176138 0.742894
vt 0.109481 0.774212
vt 0.109481 0.721324
vt 0.109481 0.833843
vn 0.280324 0.389578 -0.877295
vn 0.280324 0.389578 -0.877295
vn 0.280324 0.389578 -0.877295
vn 0.280324 0.389578 -0.877295
vn -0.000000 0.480722 -0.876873
vn -0.000000 0.480722 -0.876873
vn -0.000000 0.480722 -0.876873
vn -0.000000 0.480722 -0.876873
vn -0.280324 0.389578 -0.877295
vn -0.280324 0.389578 -0.877295
vn -0.280324 0.389578 -0.877295
vn -0.280324 0.389578 -0.877295
vn -0.455491 0.149272 -0.877636
vn -0.455491 0.149272 -0.877636
vn -0.455491 0.149272 -0.877636
vn -0.455491 0.149272 -0.877636
vn -0.455491 -0.149272 -0.877636
vn -0.455491 -0.149272 -0.877636
vn -0.455491 -0.149272 -0.877636
vn -0.455491 -0.149272 -0.877636
vn -0.280324 -0.389578 -0.877295
vn -0.280324 -0.389578 -0.877295
vn -0.280324 -0.389578 -0.877295
vn -0.280324 -0.389578 -0.877295
vn 0.000000 -0.480721 -0.876873
vn 0.000000 -0.480721 -0.876873
vn 0.000000 -0.480721 -0.876873
vn 0.000000 -0.480721 -0.876873
vn 0.280324 -0.389578 -0.877295
vn 0.280324 -0.389578 -0.877295
vn 0.280324 -0.389578 -0.877295
vn 0.280324 -0.389578 -0.877295
vn 0.455491 -0.149273 -0.877636
vn 0.455491 -0.149273 -0.877636
vn 0.455491 -0.149273 -0.877636
vn 0.455491 -0.149273 -0.877636
vn 0.455491 0.149273 -0.877636
vn 0.455491 0.149273 -0.877636
vn 0.455491 0.149273 -0.877636
vn 0.455491 0.149273 -0.877636
vn 0.094990 0.130789 -0.986849
vn 0.094990 0.130789 -0.986849
vn 0.094990 0.130789 -0.986849
vn -0.000000 0.161638 -0.986850
vn -0.000000 0.161638 -0.986850
vn -0.000000 0.161638 -0.986850
vn -0.094990 0.130790 -0.986849
vn -0.094990 0.130790 -0.986849
vn -0.094990 0.130790 -0.986849
vn -0.153741 0.049954 -0.986848
vn -0.153741 0.049954 -0.986848
vn -0.153741 0.049954 -0.986848
vn -0.153741 -0.049954 -0.986848
vn -0.153741 -0.049954 -0.986848
vn -0.153741 -0.049954 -0.986848
vn -0.094990 -0.130789 -0.986849
vn -0.094990 -0.130789 -0.986849
vn -0.094990 -0.130789 -0.986849
vn 0.000000 -0.161638 -0.986850
vn 0.000000 -0.161638 -0.986850
vn 0.000000 -0.161638 -0.986850
vn 0.094990 -0.130790 -0.986849
vn 0.094990 -0.130790 -0.986849
vn 0.094990 -0.130790 -0.986849
vn 0.153741 -0.049954 -0.986848
vn 0.153741 -0.049954 -0.986848
vn 0.153741 -0.049954 -0.986848
vn 0.153741 0.049954 -0.986848
vn 0.153741 0.049954 -0.986848
vn 0.153741 0.049954 -0.986848
s off
g polySurface1pSphere1
usemtl initialShadingGroup
f 1/1/1 2/2/2 13/3/3 12/4/4
f 2/2/5 3/5/6 14/6/7 13/3/8
f 3/5/9 4/7/10 15/8/11 14/6/12
f 4/7/13 5/9/14 16/10/15 15/8/16
f 5/9/17 6/11/18 17/12/19 16/10/20
f 6/11/21 7/13/22 18/14/23 17/12/24
f 7/13/25 8/15/26 19/16/27 18/14/28
f 8/15/29 9/17/30 20/18/31 19/16/32
f 9/17/33 10/19/34 21/20/35 20/18/36
f 10/19/37 1/1/38 12/4/39 21/20/40
f 2/2/41 1/1/42 11/21/43
f 3/5/44 2/2/45 11/21/46
f 4/7/47 3/5/48 11/21/49
f 5/9/50 4/7/51 11/21/52
f 6/11/53 5/9/54 11/21/55
f 7/13/56 6/11/57 11/21/58
f 8/15/59 7/13/60 11/21/61
f 9/17/62 8/15/63 11/21/64
f 10/19/65 9/17/66 11/21/67
f 1/1/68 10/19/69 11/21/70
