# This file uses centimeters as units for non-parametric coordinates.

mtllib finestra 3.mtl
g default
v 0.077715 0.026844 -0.249719
v 0.048030 0.026844 -0.329362
v -0.000000 0.026844 -0.359783
v -0.048030 0.026844 -0.329362
v -0.077715 0.026844 -0.249719
v -0.077715 0.026844 -0.151276
v -0.048030 0.026844 -0.071633
v -0.000000 0.026844 -0.041212
v 0.048030 0.026844 -0.071633
v 0.077715 0.026844 -0.151276
v 0.073911 0.047734 -0.247310
v 0.045680 0.047734 -0.323055
v -0.000000 0.047734 -0.351987
v -0.045680 0.047734 -0.323055
v -0.073911 0.047734 -0.247310
v -0.073911 0.047734 -0.153685
v -0.045680 0.047734 -0.077940
v -0.000000 0.047734 -0.049008
v 0.045680 0.047734 -0.077940
v 0.073911 0.047734 -0.153685
v 0.062873 0.066580 -0.240319
v 0.038857 0.066580 -0.304751
v -0.000000 0.066580 -0.329362
v -0.038857 0.066580 -0.304751
v -0.062873 0.066580 -0.240319
v -0.062873 0.066580 -0.160676
v -0.038857 0.066580 -0.096244
v -0.000000 0.066580 -0.071633
v 0.038857 0.066580 -0.096244
v 0.062872 0.066580 -0.160676
v 0.045680 0.081535 -0.229429
v 0.028231 0.081535 -0.276242
v -0.000000 0.081535 -0.294123
v -0.028232 0.081535 -0.276242
v -0.045680 0.081535 -0.229429
v -0.045680 0.081535 -0.171565
v -0.028232 0.081535 -0.124753
v -0.000000 0.081535 -0.106872
v 0.028231 0.081535 -0.124753
v 0.045680 0.081535 -0.171565
v 0.024015 0.091137 -0.215708
v 0.014842 0.091137 -0.240319
v -0.000000 0.091137 -0.249719
v -0.014842 0.091137 -0.240319
v -0.024015 0.091137 -0.215708
v -0.024015 0.091137 -0.185287
v -0.014842 0.091137 -0.160676
v -0.000000 0.091137 -0.151276
v 0.014842 0.091137 -0.160676
v 0.024015 0.091137 -0.185287
v -0.000000 0.094446 -0.200497
vt 0.869150 0.203974
vt 0.770506 0.195044
vt 0.806019 0.000000
vt 0.903561 0.021830
vt 0.478342 0.520322
vt 0.578019 0.505023
vt 0.598439 0.703237
vt 0.499374 0.704479
vt 0.584167 0.900832
vt 0.484960 0.889466
vt 0.698154 0.567564
vt 0.600092 0.592052
vt 0.560950 0.396265
vt 0.660082 0.386432
vt 0.559063 0.195384
vt 0.657790 0.203342
vt 0.592654 0.000000
vt 0.690406 0.020869
vt 0.120096 0.904474
vt 0.020419 0.919773
vt 0.000000 0.721558
vt 0.099065 0.720316
vt 0.014272 0.523964
vt 0.113478 0.535330
vt 0.905927 0.568575
vt 0.807629 0.592096
vt 0.770416 0.395934
vt 0.869640 0.387077
vt 0.967950 0.213759
vt 0.999103 0.055309
vt 0.381799 0.546801
vt 0.400678 0.706063
vt 0.386610 0.866645
vt 0.791881 0.531929
vt 0.758204 0.374941
vt 0.756682 0.212155
vt 0.786273 0.053406
vt 0.216640 0.877995
vt 0.197760 0.718732
vt 0.211829 0.558151
vt 1.000000 0.533864
vt 0.967871 0.376552
vt 0.463599 0.339430
vt 0.558663 0.367629
vt 0.459530 0.516939
vt 0.399195 0.438248
vt 0.291566 0.579465
vt 0.289007 0.480339
vt 0.118927 0.531322
vt 0.175122 0.449625
vt 0.007558 0.390896
vt 0.101042 0.357835
vt 0.000000 0.211830
vt 0.095063 0.240033
vt 0.099138 0.062521
vt 0.159468 0.141215
vt 0.267102 -0.000000
vt 0.269656 0.099126
vt 0.439737 0.048145
vt 0.383539 0.129841
vt 0.551102 0.188566
vt 0.457618 0.221629
vt 0.371059 0.313627
vt 0.339496 0.362980
vt 0.284951 0.384356
vt 0.228259 0.369588
vt 0.191075 0.324318
vt 0.187602 0.265837
vt 0.219166 0.216484
vt 0.273711 0.195109
vt 0.330402 0.209877
vt 0.367585 0.255147
vt 0.279330 0.289733
vn 0.916863 0.206351 -0.341734
vn 0.916863 0.206351 -0.341734
vn 0.916863 0.206351 -0.341734
vn 0.916863 0.206351 -0.341734
vn 0.510310 0.300685 -0.805713
vn 0.510310 0.300685 -0.805713
vn 0.510310 0.300685 -0.805713
vn 0.510310 0.300685 -0.805713
vn -0.510310 0.300685 -0.805712
vn -0.510310 0.300685 -0.805712
vn -0.510310 0.300685 -0.805712
vn -0.510310 0.300685 -0.805712
vn -0.916863 0.206351 -0.341733
vn -0.916863 0.206351 -0.341733
vn -0.916863 0.206351 -0.341733
vn -0.916863 0.206351 -0.341733
vn -0.983825 0.179134 0.000000
vn -0.983825 0.179134 0.000000
vn -0.983825 0.179134 0.000000
vn -0.983825 0.179134 0.000000
vn -0.916863 0.206351 0.341734
vn -0.916863 0.206351 0.341734
vn -0.916863 0.206351 0.341734
vn -0.916863 0.206351 0.341734
vn -0.510310 0.300685 0.805713
vn -0.510310 0.300685 0.805713
vn -0.510310 0.300685 0.805713
vn -0.510310 0.300685 0.805713
vn 0.510310 0.300685 0.805713
vn 0.510310 0.300685 0.805712
vn 0.510310 0.300685 0.805712
vn 0.510310 0.300685 0.805712
vn 0.916863 0.206351 0.341733
vn 0.916863 0.206351 0.341733
vn 0.916863 0.206351 0.341733
vn 0.916863 0.206351 0.341733
vn 0.983825 0.179134 0.000000
vn 0.983825 0.179134 0.000000
vn 0.983825 0.179134 0.000000
vn 0.983825 0.179134 0.000000
vn 0.775418 0.561425 -0.289014
vn 0.775418 0.561425 -0.289014
vn 0.775418 0.561425 -0.289014
vn 0.775418 0.561425 -0.289014
vn 0.375667 0.712090 -0.593129
vn 0.375667 0.712090 -0.593129
vn 0.375667 0.712090 -0.593129
vn 0.375667 0.712090 -0.593129
vn -0.375667 0.712090 -0.593129
vn -0.375667 0.712090 -0.593129
vn -0.375667 0.712090 -0.593129
vn -0.375667 0.712090 -0.593129
vn -0.775418 0.561425 -0.289014
vn -0.775418 0.561425 -0.289014
vn -0.775418 0.561425 -0.289014
vn -0.775418 0.561425 -0.289014
vn -0.862869 0.505427 0.000000
vn -0.862869 0.505427 0.000000
vn -0.862869 0.505427 0.000000
vn -0.862869 0.505427 0.000000
vn -0.775418 0.561425 0.289014
vn -0.775418 0.561425 0.289014
vn -0.775418 0.561425 0.289014
vn -0.775418 0.561425 0.289014
vn -0.375667 0.712090 0.593129
vn -0.375667 0.712090 0.593129
vn -0.375667 0.712090 0.593129
vn -0.375667 0.712090 0.593129
vn 0.375667 0.712089 0.593130
vn 0.375668 0.712089 0.593130
vn 0.375668 0.712089 0.593130
vn 0.375668 0.712089 0.593130
vn 0.775418 0.561425 0.289014
vn 0.775418 0.561425 0.289014
vn 0.775418 0.561425 0.289014
vn 0.775418 0.561425 0.289014
vn 0.862869 0.505427 0.000000
vn 0.862869 0.505427 0.000000
vn 0.862869 0.505427 0.000000
vn 0.862869 0.505427 0.000000
vn 0.562711 0.799605 -0.209734
vn 0.562711 0.799605 -0.209734
vn 0.562711 0.799605 -0.209734
vn 0.562711 0.799605 -0.209734
vn 0.240197 0.893579 -0.379240
vn 0.240197 0.893579 -0.379240
vn 0.240197 0.893579 -0.379240
vn 0.240197 0.893579 -0.379240
vn -0.240197 0.893579 -0.379239
vn -0.240197 0.893579 -0.379239
vn -0.240197 0.893579 -0.379239
vn -0.240197 0.893579 -0.379239
vn -0.562711 0.799605 -0.209734
vn -0.562711 0.799605 -0.209734
vn -0.562711 0.799605 -0.209734
vn -0.562711 0.799605 -0.209734
vn -0.656308 0.754493 0.000000
vn -0.656308 0.754493 0.000000
vn -0.656308 0.754493 0.000000
vn -0.656308 0.754493 0.000000
vn -0.562711 0.799605 0.209734
vn -0.562711 0.799605 0.209734
vn -0.562711 0.799605 0.209734
vn -0.562711 0.799605 0.209734
vn -0.240197 0.893579 0.379240
vn -0.240197 0.893579 0.379240
vn -0.240197 0.893579 0.379240
vn -0.240197 0.893579 0.379240
vn 0.240197 0.893579 0.379240
vn 0.240197 0.893579 0.379239
vn 0.240197 0.893579 0.379240
vn 0.240197 0.893579 0.379240
vn 0.562711 0.799605 0.209734
vn 0.562711 0.799605 0.209734
vn 0.562711 0.799605 0.209734
vn 0.562711 0.799605 0.209734
vn 0.656308 0.754493 0.000000
vn 0.656308 0.754493 0.000000
vn 0.656308 0.754493 0.000000
vn 0.656308 0.754493 0.000000
vn 0.334889 0.933954 -0.124820
vn 0.334889 0.933954 -0.124820
vn 0.334889 0.933954 -0.124820
vn 0.334889 0.933954 -0.124820
vn 0.132684 0.968766 -0.209491
vn 0.132684 0.968766 -0.209491
vn 0.132684 0.968766 -0.209491
vn 0.132684 0.968766 -0.209491
vn -0.132684 0.968766 -0.209491
vn -0.132684 0.968766 -0.209491
vn -0.132684 0.968766 -0.209491
vn -0.132684 0.968766 -0.209491
vn -0.334889 0.933954 -0.124820
vn -0.334889 0.933954 -0.124820
vn -0.334889 0.933954 -0.124820
vn -0.334889 0.933954 -0.124820
vn -0.405203 0.914227 0.000000
vn -0.405203 0.914227 0.000000
vn -0.405203 0.914227 0.000000
vn -0.405203 0.914227 0.000000
vn -0.334889 0.933954 0.124820
vn -0.334889 0.933954 0.124820
vn -0.334889 0.933954 0.124820
vn -0.334889 0.933954 0.124820
vn -0.132684 0.968766 0.209491
vn -0.132684 0.968766 0.209491
vn -0.132684 0.968766 0.209491
vn -0.132684 0.968766 0.209491
vn 0.132684 0.968766 0.209491
vn 0.132684 0.968766 0.209491
vn 0.132684 0.968766 0.209491
vn 0.132684 0.968766 0.209491
vn 0.334889 0.933954 0.124820
vn 0.334889 0.933954 0.124820
vn 0.334889 0.933954 0.124820
vn 0.334889 0.933954 0.124820
vn 0.405203 0.914227 0.000000
vn 0.405203 0.914227 0.000000
vn 0.405203 0.914227 0.000000
vn 0.405203 0.914227 0.000000
vn 0.110680 0.993000 -0.041253
vn 0.110680 0.993000 -0.041253
vn 0.110680 0.993000 -0.041253
vn 0.042440 0.996849 -0.067007
vn 0.042440 0.996849 -0.067007
vn 0.042440 0.996849 -0.067007
vn -0.042440 0.996849 -0.067007
vn -0.042440 0.996849 -0.067007
vn -0.042440 0.996849 -0.067007
vn -0.110681 0.992999 -0.041253
vn -0.110681 0.992999 -0.041253
vn -0.110681 0.992999 -0.041253
vn -0.136484 0.990642 0.000000
vn -0.136484 0.990642 0.000000
vn -0.136484 0.990642 0.000000
vn -0.110681 0.992999 0.041253
vn -0.110681 0.992999 0.041253
vn -0.110681 0.992999 0.041253
vn -0.042440 0.996849 0.067008
vn -0.042440 0.996849 0.067008
vn -0.042440 0.996849 0.067008
vn 0.042440 0.996849 0.067007
vn 0.042440 0.996849 0.067007
vn 0.042440 0.996849 0.067007
vn 0.110681 0.992999 0.041253
vn 0.110681 0.992999 0.041253
vn 0.110681 0.992999 0.041253
vn 0.136484 0.990642 0.000000
vn 0.136484 0.990642 0.000000
vn 0.136484 0.990642 0.000000
s off
g pSphere2
usemtl initialShadingGroup
f 11/1/1 1/2/2 2/3/3 12/4/4
f 12/5/5 2/6/6 3/7/7 13/8/8
f 13/8/9 3/7/10 4/9/11 14/10/12
f 14/11/13 4/12/14 5/13/15 15/14/16
f 15/14/17 5/13/18 6/15/19 16/16/20
f 16/16/21 6/15/22 7/17/23 17/18/24
f 17/19/25 7/20/26 8/21/27 18/22/28
f 18/22/29 8/21/30 9/23/31 19/24/32
f 19/25/33 9/26/34 10/27/35 20/28/36
f 20/28/37 10/27/38 1/2/39 11/1/40
f 21/29/41 11/1/42 12/4/43 22/30/44
f 22/31/45 12/5/46 13/8/47 23/32/48
f 23/32/49 13/8/50 14/10/51 24/33/52
f 24/34/53 14/11/54 15/14/55 25/35/56
f 25/35/57 15/14/58 16/16/59 26/36/60
f 26/36/61 16/16/62 17/18/63 27/37/64
f 27/38/65 17/19/66 18/22/67 28/39/68
f 28/39/69 18/22/70 19/24/71 29/40/72
f 29/41/73 19/25/74 20/28/75 30/42/76
f 30/42/77 20/28/78 11/1/79 21/29/80
f 31/43/81 21/44/82 22/45/83 32/46/84
f 32/46/85 22/45/86 23/47/87 33/48/88
f 33/48/89 23/47/90 24/49/91 34/50/92
f 34/50/93 24/49/94 25/51/95 35/52/96
f 35/52/97 25/51/98 26/53/99 36/54/100
f 36/54/101 26/53/102 27/55/103 37/56/104
f 37/56/105 27/55/106 28/57/107 38/58/108
f 38/58/109 28/57/110 29/59/111 39/60/112
f 39/60/113 29/59/114 30/61/115 40/62/116
f 40/62/117 30/61/118 21/44/119 31/43/120
f 41/63/121 31/43/122 32/46/123 42/64/124
f 42/64/125 32/46/126 33/48/127 43/65/128
f 43/65/129 33/48/130 34/50/131 44/66/132
f 44/66/133 34/50/134 35/52/135 45/67/136
f 45/67/137 35/52/138 36/54/139 46/68/140
f 46/68/141 36/54/142 37/56/143 47/69/144
f 47/69/145 37/56/146 38/58/147 48/70/148
f 48/70/149 38/58/150 39/60/151 49/71/152
f 49/71/153 39/60/154 40/62/155 50/72/156
f 50/72/157 40/62/158 31/43/159 41/63/160
f 51/73/161 41/63/162 42/64/163
f 51/73/164 42/64/165 43/65/166
f 51/73/167 43/65/168 44/66/169
f 51/73/170 44/66/171 45/67/172
f 51/73/173 45/67/174 46/68/175
f 51/73/176 46/68/177 47/69/178
f 51/73/179 47/69/180 48/70/181
f 51/73/182 48/70/183 49/71/184
f 51/73/185 49/71/186 50/72/187
f 51/73/188 50/72/189 41/63/190
