# This file uses centimeters as units for non-parametric coordinates.

mtllib finestra 1.mtl
g default
v -0.050289 -0.031246 0.049966
v 0.050000 -0.031246 0.050000
v -0.050289 0.050455 0.049966
v 0.050000 0.050000 0.050000
v -0.100556 0.050000 -0.050000
v 0.100556 0.050000 -0.050000
v -0.100845 -0.031246 -0.050033
v 0.100266 -0.031246 -0.050033
v -0.049161 0.050000 -0.200418
v 0.049161 0.050000 -0.200418
v 0.048871 -0.031246 -0.200451
v -0.049450 -0.031246 -0.200451
v 0.163706 -0.031246 -0.045609
v 0.111301 -0.031246 0.017759
v 0.163706 -0.004540 -0.045609
v 0.111301 -0.004540 0.017759
v 0.114161 -0.031246 -0.222627
v 0.114161 -0.004540 -0.222627
v -0.163996 -0.031246 -0.045643
v -0.111591 -0.031246 0.017725
v -0.111591 -0.004085 0.017725
v -0.163706 -0.004540 -0.045609
v -0.114161 -0.004540 -0.222627
v -0.114161 -0.031246 -0.222627
v -0.030389 0.009359 -0.313214
v 0.030483 0.009407 -0.313246
v 0.030193 -0.031246 -0.313280
v -0.030679 -0.031246 -0.313248
v 0.076805 -0.019857 -0.275249
v 0.076805 -0.031246 -0.275249
v -0.076618 -0.031246 -0.275185
v -0.076618 -0.019953 -0.275185
vt 0.689192 0.722590
vt 0.689192 0.585595
vt 0.800175 0.585595
vt 0.800796 0.722590
vt 0.642576 0.002038
vt 0.779571 0.001992
vt 0.848630 0.138592
vt 0.573912 0.138592
vt 0.628083 0.585009
vt 0.628017 0.501858
vt 0.683549 0.502253
vt 0.683549 0.585404
vt 0.088096 0.361586
vt 0.362813 0.361586
vt 0.294150 0.498232
vt 0.157155 0.498186
vt 0.455588 0.454190
vt 0.455588 0.367630
vt 0.492069 0.367630
vt 0.492069 0.454190
vt 0.806440 0.632459
vt 0.806440 0.545899
vt 0.843541 0.545899
vt 0.842920 0.632414
vt 0.778424 0.344062
vt 0.644118 0.344062
vt 0.455588 0.125823
vt 0.492069 0.125823
vt 0.158301 0.156116
vt 0.292608 0.156116
vt 0.842920 0.874220
vt 0.806440 0.874220
vt 0.449472 0.367630
vt 0.377887 0.454190
vt 0.566570 0.361632
vt 0.566570 0.498232
vt 0.689193 0.501858
vt 0.725674 0.501858
vt 0.381793 0.125823
vt 0.455588 0.001992
vt 0.511120 0.002038
vt 0.471146 0.053943
vt 0.455588 0.053943
vt 0.566570 0.156161
vt 0.073418 0.454144
vt 0.001832 0.367584
vt 0.726295 0.806327
vt 0.689193 0.806327
vt 0.918042 0.501858
vt 0.917421 0.638412
vt 0.917421 0.843882
vt 0.861906 0.997962
vt 0.806439 0.998008
vt 0.806440 0.946013
vt 0.821865 0.946013
vt 0.069907 0.125823
vt 0.752911 0.498186
vt 0.669760 0.498142
vt 0.183943 0.002036
vt 0.267094 0.001992
vt 0.330766 0.053943
vt 0.121190 0.054030
vn -0.000334 0.000000 1.000000
vn -0.000334 0.000000 1.000000
vn -0.000334 0.000000 1.000000
vn -0.000334 0.000000 1.000000
vn 0.001509 0.999996 -0.002271
vn 0.001509 0.999996 -0.002271
vn 0.001509 0.999996 -0.002271
vn 0.001509 0.999996 -0.002271
vn -0.000524 0.000828 -1.000000
vn -0.000524 0.000828 -1.000000
vn -0.000524 0.000828 -1.000000
vn -0.000524 0.000828 -1.000000
vn 0.000000 -1.000000 0.000000
vn 0.000000 -1.000000 0.000000
vn 0.000000 -1.000000 0.000000
vn 0.000000 -1.000000 0.000000
vn 0.770616 0.000000 0.637300
vn 0.770616 0.000000 0.637300
vn 0.770616 0.000000 0.637300
vn 0.770616 0.000000 0.637300
vn -0.771399 0.003750 0.636341
vn -0.771399 0.003750 0.636341
vn -0.771399 0.003750 0.636341
vn -0.771399 0.003750 0.636341
vn 0.000000 1.000000 0.000000
vn 0.000000 1.000000 0.000000
vn 0.000000 1.000000 0.000000
vn 0.000000 1.000000 0.000000
vn 0.962992 0.000000 -0.269532
vn 0.962992 0.000000 -0.269532
vn 0.962992 0.000000 -0.269532
vn 0.962992 0.000000 -0.269532
vn 0.000000 -1.000000 0.000000
vn 0.000000 -1.000000 0.000000
vn 0.000000 -1.000000 0.000000
vn 0.000000 -1.000000 0.000000
vn -0.962766 0.005388 -0.270281
vn -0.962766 0.005388 -0.270281
vn -0.962766 0.005388 -0.270281
vn -0.962766 0.005388 -0.270281
vn 0.000005 -1.000000 0.000003
vn 0.000005 -1.000000 0.000003
vn 0.000005 -1.000000 0.000003
vn 0.000005 -1.000000 0.000003
vn 0.651272 0.638255 0.410458
vn 0.651272 0.638255 0.410458
vn 0.651272 0.638255 0.410458
vn 0.651272 0.638255 0.410458
vn 0.465495 0.000000 0.885051
vn 0.465495 0.000000 0.885050
vn 0.465495 0.000000 0.885051
vn 0.465495 0.000000 0.885050
vn 0.000004 -1.000000 -0.000001
vn 0.000004 -1.000000 -0.000001
vn 0.000004 -1.000000 -0.000001
vn 0.000004 -1.000000 -0.000001
vn 0.632627 -0.003021 -0.774451
vn 0.632627 -0.003021 -0.774451
vn 0.632627 -0.003021 -0.774451
vn 0.632627 -0.003021 -0.774451
vn 0.620635 0.760399 -0.191327
vn 0.620635 0.760399 -0.191327
vn 0.620635 0.760399 -0.191327
vn 0.620635 0.760399 -0.191327
vn -0.000005 -1.000000 0.000003
vn -0.000005 -1.000000 0.000003
vn -0.000005 -1.000000 0.000003
vn -0.000005 -1.000000 0.000003
vn -0.465495 0.000000 0.885051
vn -0.465495 0.000000 0.885051
vn -0.465495 0.000000 0.885051
vn -0.465495 0.000000 0.885051
vn -0.652182 0.640604 0.405321
vn -0.652182 0.640604 0.405321
vn -0.652182 0.640604 0.405321
vn -0.652182 0.640604 0.405321
vn -0.620635 0.760399 -0.191327
vn -0.620635 0.760399 -0.191327
vn -0.620635 0.760399 -0.191327
vn -0.620635 0.760399 -0.191327
vn -0.637416 0.004053 -0.770509
vn -0.637416 0.004053 -0.770509
vn -0.637416 0.004053 -0.770509
vn -0.637416 0.004053 -0.770509
vn -0.000004 -1.000000 -0.000001
vn -0.000004 -1.000000 -0.000001
vn -0.000004 -1.000000 -0.000001
vn -0.000004 -1.000000 -0.000001
vn -0.000353 0.940875 -0.338754
vn -0.000353 0.940875 -0.338754
vn -0.000353 0.940875 -0.338754
vn -0.000353 0.940875 -0.338754
vn 0.000000 -1.000000 -0.000001
vn 0.000000 -1.000000 -0.000001
vn 0.000000 -1.000000 -0.000001
vn 0.000000 -1.000000 -0.000001
vn 0.581075 0.690827 -0.430244
vn 0.581075 0.690827 -0.430244
vn 0.581075 0.690827 -0.430244
vn 0.581075 0.690827 -0.430244
vn 0.815425 0.000000 -0.578863
vn 0.815425 0.000000 -0.578863
vn 0.815425 0.000000 -0.578863
vn 0.815425 0.000000 -0.578863
vn 0.000003 -1.000000 -0.000001
vn 0.000003 -1.000000 -0.000001
vn 0.000003 -1.000000 -0.000001
vn 0.000003 -1.000000 -0.000001
vn -0.000003 -1.000000 -0.000001
vn -0.000003 -1.000000 -0.000001
vn -0.000003 -1.000000 -0.000001
vn -0.000003 -1.000000 -0.000001
vn -0.813722 0.000000 -0.581255
vn -0.813722 0.000000 -0.581255
vn -0.813722 0.000000 -0.581255
vn -0.813722 0.000000 -0.581255
vn -0.581326 0.689660 -0.431775
vn -0.581326 0.689660 -0.431775
vn -0.581326 0.689660 -0.431775
vn -0.581326 0.689660 -0.431775
s off
g pCube1
usemtl initialShadingGroup
f 1/1/1 2/2/2 4/3/3 3/4/4
f 3/5/5 4/6/6 6/7/7 5/8/8
f 25/9/9 26/10/10 27/11/11 28/12/12
f 7/13/13 8/14/14 2/15/15 1/16/16
f 14/17/17 13/18/18 15/19/19 16/20/20
f 19/21/21 20/22/22 21/23/23 22/24/24
f 5/8/25 6/7/26 10/25/27 9/26/28
f 15/19/29 13/18/30 17/27/31 18/28/32
f 8/14/33 7/13/34 12/29/35 11/30/36
f 19/21/37 22/24/38 23/31/39 24/32/40
f 2/15/41 8/14/42 13/33/43 14/34/44
f 6/35/45 4/36/46 16/20/47 15/19/48
f 4/3/49 2/2/50 14/37/51 16/38/52
f 8/14/53 11/30/54 17/39/55 13/33/56
f 27/40/57 26/41/58 29/42/59 30/43/60
f 10/44/61 6/35/62 15/19/63 18/28/64
f 7/13/65 1/16/66 20/45/67 19/46/68
f 1/1/69 3/4/70 21/47/71 20/48/72
f 3/49/73 5/50/74 22/24/75 21/23/76
f 5/50/77 9/51/78 23/31/79 22/24/80
f 25/52/81 28/53/82 31/54/83 32/55/84
f 12/29/85 7/13/86 19/46/87 24/56/88
f 9/26/89 10/25/90 26/57/91 25/58/92
f 11/30/93 12/29/94 28/59/95 27/60/96
f 10/44/97 18/28/98 29/42/99 26/41/100
f 18/28/101 17/27/102 30/43/103 29/42/104
f 17/39/105 11/30/106 27/60/107 30/61/108
f 12/29/109 24/56/110 31/62/111 28/59/112
f 24/32/113 23/31/114 32/55/115 31/54/116
f 23/31/117 9/51/118 25/52/119 32/55/120
